<svg width="111" height="54" viewBox="0 0 111 54" fill="none" xmlns="http://www.w3.org/2000/svg">
<path d="M110.82 31.7183L103.299 46.2656V53.4463H98.0062V46.2656L90.4849 31.7183H96.4895L100.699 40.8181L104.877 31.7183H110.82Z" fill="black"/>
<path d="M82.8923 49.6083H74.783L73.4831 53.4463H67.9427L75.8044 31.7183H81.9329L89.7945 53.4463H84.1923L82.8923 49.6083ZM81.5305 45.5227L78.8377 37.5682L76.1759 45.5227H81.5305Z" fill="black"/>
<path d="M55.0186 31.7183C57.309 31.7183 59.3105 32.1723 61.0232 33.0802C62.7358 33.9881 64.0564 35.2674 64.985 36.9182C65.9341 38.5483 66.4087 40.4363 66.4087 42.5823C66.4087 44.7077 65.9341 46.5957 64.985 48.2465C64.0564 49.8972 62.7255 51.1765 60.9922 52.0844C59.2796 52.9924 57.2883 53.4463 55.0186 53.4463H46.8783V31.7183H55.0186ZM54.6781 48.8655C56.6796 48.8655 58.2375 48.3187 59.3518 47.2251C60.466 46.1314 61.0232 44.5839 61.0232 42.5823C61.0232 40.5808 60.466 39.0229 59.3518 37.9086C58.2375 36.7944 56.6796 36.2373 54.6781 36.2373H52.171V48.8655H54.6781Z" fill="black"/>
<path d="M43.0427 31.7183V53.4463H37.75V31.7183H43.0427Z" fill="black"/>
<path d="M28.6396 53.4463L24.1207 45.2442H22.8517V53.4463H17.559V31.7183H26.4421C28.1547 31.7183 29.6094 32.0175 30.8062 32.6159C32.0237 33.2143 32.9316 34.0397 33.53 35.092C34.1284 36.1238 34.4276 37.2793 34.4276 38.5586C34.4276 40.003 34.0149 41.2927 33.1895 42.4276C32.3848 43.5625 31.188 44.3672 29.5991 44.8418L34.6133 53.4463H28.6396ZM22.8517 41.499H26.1325C27.1024 41.499 27.8246 41.2617 28.2992 40.7871C28.7944 40.3125 29.042 39.6419 29.042 38.7753C29.042 37.9499 28.7944 37.2999 28.2992 36.8253C27.8246 36.3507 27.1024 36.1134 26.1325 36.1134H22.8517V41.499Z" fill="black"/>
<path d="M14.7772 31.7183V35.9587H5.92504V40.5395H12.5487V44.6561H5.92504V53.4463H0.632324V31.7183H14.7772Z" fill="black"/>
<path d="M99.3741 22.4463L92.0695 12.8513V22.4463H86.7768V0.718323H92.0695V10.2514L99.3122 0.718323H105.533L97.1146 11.3657L105.843 22.4463H99.3741Z" fill="black"/>
<path d="M62.3029 11.5514C62.3029 9.40539 62.7671 7.49671 63.6957 5.82532C64.6242 4.1333 65.9139 2.82302 67.5646 1.89447C69.236 0.945294 71.1241 0.470703 73.2288 0.470703C75.8081 0.470703 78.0159 1.15164 79.8524 2.51351C81.6888 3.87537 82.9166 5.73247 83.5356 8.08479H77.7167C77.2834 7.17687 76.6644 6.48562 75.8596 6.01103C75.0755 5.53644 74.1779 5.29915 73.1669 5.29915C71.5367 5.29915 70.2161 5.86659 69.2051 7.00148C68.194 8.13637 67.6884 9.653 67.6884 11.5514C67.6884 13.4497 68.194 14.9663 69.2051 16.1012C70.2161 17.2361 71.5367 17.8036 73.1669 17.8036C74.1779 17.8036 75.0755 17.5663 75.8596 17.0917C76.6644 16.6171 77.2834 15.9258 77.7167 15.0179H83.5356C82.9166 17.3703 81.6888 19.2273 79.8524 20.5892C78.0159 21.9304 75.8081 22.6011 73.2288 22.6011C71.1241 22.6011 69.236 22.1368 67.5646 21.2082C65.9139 20.2591 64.6242 18.9488 63.6957 17.2774C62.7671 15.606 62.3029 13.6973 62.3029 11.5514Z" fill="black"/>
<path d="M53.9055 18.6083H45.7962L44.4963 22.4463H38.9559L46.8176 0.718323H52.946L60.8077 22.4463H55.2055L53.9055 18.6083ZM52.5437 14.5227L49.8509 6.56817L47.189 14.5227H52.5437Z" fill="black"/>
<path d="M30.9221 18.3607H37.8552V22.4463H25.6293V0.718323H30.9221V18.3607Z" fill="black"/>
<path d="M18.3811 11.3038C19.6398 11.572 20.6509 12.2013 21.4143 13.1918C22.1778 14.1616 22.5596 15.2759 22.5596 16.5346C22.5596 18.3504 21.9199 19.7948 20.6406 20.8678C19.3819 21.9201 17.6176 22.4463 15.3478 22.4463H5.22668V0.718323H15.0074C17.2153 0.718323 18.9382 1.22386 20.1763 2.23495C21.435 3.24603 22.0643 4.61822 22.0643 6.35151C22.0643 7.63084 21.7239 8.69351 21.0429 9.53952C20.3826 10.3855 19.4954 10.9736 18.3811 11.3038ZM10.5194 9.50856H13.986C14.8526 9.50856 15.5129 9.32286 15.9669 8.95144C16.4415 8.55938 16.6788 7.99194 16.6788 7.2491C16.6788 6.50626 16.4415 5.93882 15.9669 5.54677C15.5129 5.15471 14.8526 4.95869 13.986 4.95869H10.5194V9.50856ZM14.4193 18.175C15.3066 18.175 15.9875 17.979 16.4621 17.5869C16.9573 17.1742 17.2049 16.5862 17.2049 15.8227C17.2049 15.0592 16.947 14.4608 16.4311 14.0275C15.9359 13.5942 15.2447 13.3775 14.3574 13.3775H10.5194V18.175H14.4193Z" fill="black"/>
</svg>
