<svg width="112" height="45" viewBox="0 0 112 45" fill="none" xmlns="http://www.w3.org/2000/svg">
<g clip-path="url(#clip0_180_658)">
<path d="M45.3622 6.27694C45.0404 5.68463 44.5747 5.23617 43.9651 4.93155C43.3724 4.61001 42.6695 4.44925 41.8567 4.44925C40.4511 4.44925 39.3249 4.91463 38.4782 5.8454C37.6315 6.75925 37.2081 7.98616 37.2081 9.52617C37.2081 11.1677 37.6484 12.4538 38.529 13.3846C39.4265 14.2985 40.6544 14.7554 42.2123 14.7554C43.2792 14.7554 44.1767 14.4846 44.9049 13.9431C45.65 13.4016 46.192 12.6231 46.5307 11.6077H41.0184V8.40925H50.468V12.4454C50.1462 13.5285 49.5959 14.5354 48.8168 15.4662C48.0548 16.397 47.0811 17.15 45.8956 17.7254C44.7101 18.3008 43.3724 18.5885 41.8821 18.5885C40.1209 18.5885 38.546 18.2077 37.1573 17.4462C35.7856 16.6677 34.7103 15.5931 33.9312 14.2223C33.1692 12.8516 32.7881 11.2862 32.7881 9.52617C32.7881 7.76617 33.1692 6.20078 33.9312 4.83002C34.7103 3.44232 35.7856 2.36771 37.1573 1.60617C38.529 0.827708 40.0955 0.438477 41.8567 0.438477C43.9905 0.438477 45.7856 0.95463 47.2419 1.98694C48.7152 3.01925 49.6889 4.44925 50.1632 6.27694H45.3622ZM57.2178 4.11925V7.72386H63.0348V11.0746H57.2178V14.9839H63.7969V18.4616H52.874V0.641555H63.7969V4.11925H57.2178ZM79.445 0.641555V4.11925H74.7202V18.4616H70.3765V4.11925H65.6517V0.641555H79.445ZM7.45534 44.0239C6.15137 44.0239 4.98288 43.8124 3.94986 43.3892C2.91685 42.9661 2.08704 42.3401 1.46045 41.5108C0.850807 40.6815 0.529047 39.6831 0.495178 38.5154H5.11835C5.18609 39.1754 5.41471 39.6831 5.8042 40.0385C6.19371 40.3769 6.70175 40.5462 7.32833 40.5462C7.97186 40.5462 8.4799 40.4023 8.85245 40.1146C9.22502 39.81 9.4113 39.3954 9.4113 38.8708C9.4113 38.4308 9.25889 38.0669 8.95406 37.7792C8.66617 37.4916 8.30208 37.2546 7.86177 37.0685C7.43841 36.8824 6.82876 36.6707 6.03282 36.4339C4.88127 36.0785 3.94139 35.7231 3.2132 35.3677C2.48501 35.0123 1.85842 34.4877 1.33344 33.7939C0.80847 33.1001 0.545982 32.1946 0.545982 31.0777C0.545982 29.4193 1.14716 28.1247 2.34953 27.1939C3.5519 26.2462 5.11835 25.7723 7.04891 25.7723C9.01334 25.7723 10.5967 26.2462 11.7991 27.1939C13.0014 28.1247 13.645 29.4277 13.7297 31.1031H9.03027C8.9964 30.5277 8.78472 30.0793 8.39522 29.7577C8.00572 29.4193 7.50614 29.25 6.89649 29.25C6.37153 29.25 5.94815 29.3939 5.62639 29.6816C5.30464 29.9524 5.14375 30.35 5.14375 30.8746C5.14375 31.4501 5.41471 31.8984 5.95662 32.22C6.49854 32.5416 7.34527 32.8884 8.49682 33.2608C9.64839 33.65 10.5798 34.0223 11.2911 34.3777C12.0193 34.7331 12.6458 35.2492 13.1708 35.9262C13.6957 36.6031 13.9583 37.4746 13.9583 38.5408C13.9583 39.5562 13.6957 40.4784 13.1708 41.3077C12.6628 42.137 11.9177 42.797 10.9354 43.2877C9.95322 43.7784 8.79319 44.0239 7.45534 44.0239ZM29.4594 26.0262V29.5039H24.7347V43.8462H20.3909V29.5039H15.6661V26.0262H29.4594ZM42.7402 40.6985H36.0849L35.018 43.8462H30.471L36.9231 26.0262H41.9527L48.4049 43.8462H43.8071L42.7402 40.6985ZM41.6225 37.3477L39.4125 30.8239L37.228 37.3477H41.6225ZM59.4625 43.8462L55.7538 37.1192H54.7123V43.8462H50.3686V26.0262H57.659C59.0645 26.0262 60.2584 26.2716 61.2406 26.7623C62.2398 27.2531 62.985 27.93 63.476 28.7931C63.9671 29.6392 64.2127 30.587 64.2127 31.6362C64.2127 32.8208 63.874 33.8784 63.1966 34.8092C62.5362 35.7401 61.5539 36.4001 60.25 36.7892L64.3651 43.8462H59.4625ZM54.7123 34.0477H57.4049C58.2008 34.0477 58.7936 33.8531 59.1831 33.4639C59.5895 33.0747 59.7927 32.5246 59.7927 31.8139C59.7927 31.1369 59.5895 30.6038 59.1831 30.2146C58.7936 29.8254 58.2008 29.6308 57.4049 29.6308H54.7123V34.0477ZM79.7675 26.0262V29.5039H75.0427V43.8462H70.699V29.5039H65.9742V26.0262H79.7675ZM86.2912 29.5039V33.1085H92.1083V36.4592H86.2912V40.3685H92.8704V43.8462H81.9475V26.0262H92.8704V29.5039H86.2912ZM102.371 26.0262C104.251 26.0262 105.894 26.3985 107.299 27.1431C108.705 27.8877 109.788 28.937 110.551 30.2908C111.33 31.6277 111.719 33.1762 111.719 34.9362C111.719 36.6793 111.33 38.2277 110.551 39.5816C109.788 40.9354 108.696 41.9847 107.274 42.7292C105.868 43.4738 104.234 43.8462 102.371 43.8462H95.6903V26.0262H102.371ZM102.092 40.0892C103.734 40.0892 105.013 39.6407 105.927 38.7439C106.842 37.847 107.299 36.5777 107.299 34.9362C107.299 33.2946 106.842 32.0169 105.927 31.1031C105.013 30.1892 103.734 29.7323 102.092 29.7323H100.034V40.0892H102.092Z" fill="black"/>
</g>
<defs>
<clipPath id="clip0_180_658">
<rect width="112" height="45" fill="white"/>
</clipPath>
</defs>
</svg>
