<svg width="37" height="37" viewBox="0 0 37 37" fill="none" xmlns="http://www.w3.org/2000/svg">
<path d="M3.46516 36V25.5H8.85016C10.1302 25.5 11.0852 25.815 11.7152 26.445C12.1652 26.895 12.3902 27.47 12.3902 28.17C12.3902 29.26 11.8502 30.04 10.7702 30.51C11.4502 30.73 11.9652 31.045 12.3152 31.455C12.6752 31.865 12.8552 32.415 12.8552 33.105C12.8552 34.005 12.5052 34.715 11.8052 35.235C11.1052 35.745 10.1302 36 8.88016 36H3.46516ZM6.30016 33.66H8.55016C9.48016 33.66 9.94516 33.33 9.94516 32.67C9.94516 32.04 9.47016 31.725 8.52016 31.725H6.30016V33.66ZM6.30016 29.685H8.13016C9.05016 29.685 9.51016 29.37 9.51016 28.74C9.51016 28.14 9.07016 27.84 8.19016 27.84H6.30016V29.685ZM18.9128 36.195C17.3728 36.195 16.1778 35.795 15.3278 34.995C14.4778 34.195 14.0528 32.995 14.0528 31.395V25.5H17.0078V31.335C17.0078 32.075 17.1778 32.635 17.5178 33.015C17.8678 33.385 18.3428 33.57 18.9428 33.57C19.5428 33.57 20.0128 33.39 20.3528 33.03C20.7028 32.67 20.8778 32.13 20.8778 31.41V25.5H23.8328V31.32C23.8328 32.96 23.3978 34.185 22.5278 34.995C21.6678 35.795 20.4628 36.195 18.9128 36.195ZM28.585 36V32.07L24.595 25.5H27.91L30.07 29.325L32.245 25.5H35.5L31.51 32.025V36H28.585Z" fill="white"/>
<path d="M4.35672 16.372V14.958C3.11538 14.7993 2.01405 14.356 1.05272 13.628L2.14472 12.032C2.94738 12.6387 3.70805 13.0167 4.42672 13.166V10.94C3.38138 10.66 2.61605 10.296 2.13072 9.848C1.65472 9.39067 1.41672 8.756 1.41672 7.944C1.41672 7.17867 1.68272 6.55333 2.21472 6.068C2.74672 5.58267 3.46072 5.29333 4.35672 5.2V4.388H5.81272V5.228C6.75538 5.35867 7.62339 5.704 8.41672 6.264L7.47872 7.902C6.88138 7.50067 6.30272 7.22533 5.74272 7.076V9.19C6.81605 9.47933 7.59072 9.862 8.06672 10.338C8.54272 10.8047 8.78072 11.4347 8.78072 12.228C8.78072 12.9933 8.51005 13.6187 7.96872 14.104C7.43672 14.5893 6.71805 14.8833 5.81272 14.986V16.372H4.35672ZM4.42672 8.84V6.95C3.78272 7.034 3.46072 7.33267 3.46072 7.846C3.46072 8.07 3.52605 8.26133 3.65672 8.42C3.79672 8.56933 4.05338 8.70933 4.42672 8.84ZM5.74272 13.236C6.40538 13.1333 6.73672 12.8253 6.73672 12.312C6.73672 12.0693 6.66205 11.8733 6.51272 11.724C6.37272 11.5653 6.11605 11.416 5.74272 11.276V13.236ZM9.4735 15V13.292L12.7355 10.618C13.3795 10.086 13.8228 9.66133 14.0655 9.344C14.3082 9.01733 14.4295 8.658 14.4295 8.266C14.4295 7.86467 14.3082 7.552 14.0655 7.328C13.8228 7.104 13.5055 6.992 13.1135 6.992C12.7495 6.992 12.4182 7.09467 12.1195 7.3C11.8302 7.496 11.4942 7.832 11.1115 8.308L9.5995 7.09C10.1128 6.39 10.6402 5.87667 11.1815 5.55C11.7322 5.22333 12.4228 5.06 13.2535 5.06C14.2708 5.06 15.0875 5.34 15.7035 5.9C16.3195 6.45067 16.6275 7.188 16.6275 8.112C16.6275 8.644 16.5248 9.12467 16.3195 9.554C16.1142 9.974 15.8482 10.3473 15.5215 10.674C15.1948 10.9913 14.7048 11.402 14.0515 11.906L12.4555 13.138H16.7255V15H9.4735ZM25.0562 13.726C24.2442 14.6873 23.1942 15.168 21.9062 15.168C20.6182 15.168 19.5728 14.6873 18.7702 13.726C17.9675 12.7647 17.5662 11.556 17.5662 10.1C17.5662 8.65333 17.9722 7.44933 18.7842 6.488C19.5962 5.51733 20.6462 5.032 21.9342 5.032C23.2128 5.032 24.2535 5.51267 25.0562 6.474C25.8682 7.43533 26.2742 8.644 26.2742 10.1C26.2742 11.5467 25.8682 12.7553 25.0562 13.726ZM20.3662 12.34C20.7675 12.928 21.2902 13.222 21.9342 13.222C22.5782 13.222 23.0915 12.9327 23.4742 12.354C23.8662 11.766 24.0622 11.0147 24.0622 10.1C24.0622 9.204 23.8615 8.462 23.4602 7.874C23.0588 7.27667 22.5408 6.978 21.9062 6.978C21.2715 6.978 20.7582 7.272 20.3662 7.86C19.9742 8.43867 19.7782 9.18533 19.7782 10.1C19.7782 11.0053 19.9742 11.752 20.3662 12.34ZM34.5827 13.726C33.7707 14.6873 32.7207 15.168 31.4327 15.168C30.1447 15.168 29.0994 14.6873 28.2967 13.726C27.4941 12.7647 27.0927 11.556 27.0927 10.1C27.0927 8.65333 27.4987 7.44933 28.3107 6.488C29.1227 5.51733 30.1727 5.032 31.4607 5.032C32.7394 5.032 33.7801 5.51267 34.5827 6.474C35.3947 7.43533 35.8007 8.644 35.8007 10.1C35.8007 11.5467 35.3947 12.7553 34.5827 13.726ZM29.8927 12.34C30.2941 12.928 30.8167 13.222 31.4607 13.222C32.1047 13.222 32.6181 12.9327 33.0007 12.354C33.3927 11.766 33.5887 11.0147 33.5887 10.1C33.5887 9.204 33.3881 8.462 32.9867 7.874C32.5854 7.27667 32.0674 6.978 31.4327 6.978C30.7981 6.978 30.2847 7.272 29.8927 7.86C29.5007 8.43867 29.3047 9.18533 29.3047 10.1C29.3047 11.0053 29.5007 11.752 29.8927 12.34Z" fill="white"/>
</svg>
