<svg width="160" height="78" viewBox="0 0 160 78" fill="none" xmlns="http://www.w3.org/2000/svg">
<path d="M47.4876 11V0.499999H52.8726C54.1526 0.499999 55.1076 0.814999 55.7376 1.445C56.1876 1.895 56.4126 2.47 56.4126 3.17C56.4126 4.26 55.8726 5.04 54.7926 5.51C55.4726 5.73 55.9876 6.045 56.3376 6.455C56.6976 6.865 56.8776 7.415 56.8776 8.105C56.8776 9.005 56.5276 9.715 55.8276 10.235C55.1276 10.745 54.1526 11 52.9026 11H47.4876ZM50.3226 8.66H52.5726C53.5026 8.66 53.9676 8.33 53.9676 7.67C53.9676 7.04 53.4926 6.725 52.5426 6.725H50.3226V8.66ZM50.3226 4.685H52.1526C53.0726 4.685 53.5326 4.37 53.5326 3.74C53.5326 3.14 53.0926 2.84 52.2126 2.84H50.3226V4.685ZM58.2103 11V0.499999H66.6553V2.975H61.0903V4.565H66.1303V6.86H61.0903V8.525H66.7303V11H58.2103ZM73.2702 11.21C71.7502 11.21 70.4652 10.695 69.4152 9.665C68.3752 8.625 67.8552 7.32 67.8552 5.75C67.8552 4.21 68.3802 2.915 69.4302 1.865C70.4902 0.814999 71.8102 0.289999 73.3902 0.289999C75.2602 0.289999 76.7302 1.03 77.8002 2.51L75.6702 4.16C75.0202 3.35 74.2502 2.945 73.3602 2.945C72.6302 2.945 72.0302 3.215 71.5602 3.755C71.0902 4.295 70.8552 4.96 70.8552 5.75C70.8552 6.55 71.0902 7.22 71.5602 7.76C72.0302 8.29 72.6302 8.555 73.3602 8.555C73.8702 8.555 74.3052 8.45 74.6652 8.24C75.0252 8.02 75.3802 7.7 75.7302 7.28L77.9202 8.84C77.3702 9.59 76.7302 10.175 76.0002 10.595C75.2702 11.005 74.3602 11.21 73.2702 11.21ZM88.1942 9.62C87.1142 10.68 85.7692 11.21 84.1592 11.21C82.5492 11.21 81.2042 10.685 80.1242 9.635C79.0542 8.575 78.5192 7.28 78.5192 5.75C78.5192 4.23 79.0592 2.94 80.1392 1.88C81.2292 0.819999 82.5792 0.289999 84.1892 0.289999C85.7992 0.289999 87.1392 0.819999 88.2092 1.88C89.2892 2.93 89.8292 4.22 89.8292 5.75C89.8292 7.27 89.2842 8.56 88.1942 9.62ZM84.1892 8.585C84.9792 8.585 85.6192 8.31 86.1092 7.76C86.6092 7.21 86.8592 6.54 86.8592 5.75C86.8592 4.97 86.6042 4.305 86.0942 3.755C85.5842 3.195 84.9392 2.915 84.1592 2.915C83.3792 2.915 82.7392 3.19 82.2392 3.74C81.7492 4.29 81.5042 4.96 81.5042 5.75C81.5042 6.53 81.7542 7.2 82.2542 7.76C82.7642 8.31 83.4092 8.585 84.1892 8.585ZM91.345 11V0.499999H94.42L96.925 4.565L99.43 0.499999H102.505V11H99.61V4.97L96.925 9.08H96.865L94.195 5V11H91.345ZM104.368 11V0.499999H112.812V2.975H107.248V4.565H112.288V6.86H107.248V8.525H112.888V11H104.368ZM0.138828 33L4.60883 22.425H7.41383L11.8838 33H8.76383L7.99883 31.125H3.94883L3.19883 33H0.138828ZM4.80383 28.86H7.15883L5.98883 25.875L4.80383 28.86ZM12.9027 33V22.5H15.6177L19.9377 28.05V22.5H22.8177V33H20.2677L15.7827 27.24V33H12.9027ZM28.0002 33L32.4702 22.425H35.2752L39.7452 33H36.6252L35.8602 31.125H31.8102L31.0602 33H28.0002ZM32.6652 28.86H35.0202L33.8502 25.875L32.6652 28.86ZM40.764 33V22.5H45.729C47.259 22.5 48.399 22.875 49.149 23.625C49.769 24.245 50.079 25.075 50.079 26.115C50.079 27.655 49.359 28.73 47.919 29.34L50.424 33H47.064L44.949 29.82H43.674V33H40.764ZM43.674 27.54H45.594C46.084 27.54 46.464 27.43 46.734 27.21C47.014 26.98 47.154 26.665 47.154 26.265C47.154 25.855 47.014 25.545 46.734 25.335C46.464 25.125 46.079 25.02 45.579 25.02H43.674V27.54ZM54.1102 33V25.05H50.9602V22.5H60.1702V25.05H57.0202V33H54.1102ZM70.6627 33.21C69.1427 33.21 67.8577 32.695 66.8077 31.665C65.7677 30.625 65.2477 29.32 65.2477 27.75C65.2477 26.21 65.7727 24.915 66.8227 23.865C67.8827 22.815 69.2027 22.29 70.7827 22.29C72.6527 22.29 74.1227 23.03 75.1927 24.51L73.0627 26.16C72.4127 25.35 71.6427 24.945 70.7527 24.945C70.0227 24.945 69.4227 25.215 68.9527 25.755C68.4827 26.295 68.2477 26.96 68.2477 27.75C68.2477 28.55 68.4827 29.22 68.9527 29.76C69.4227 30.29 70.0227 30.555 70.7527 30.555C71.2627 30.555 71.6977 30.45 72.0577 30.24C72.4177 30.02 72.7727 29.7 73.1227 29.28L75.3127 30.84C74.7627 31.59 74.1227 32.175 73.3927 32.595C72.6627 33.005 71.7527 33.21 70.6627 33.21ZM85.5868 31.62C84.5068 32.68 83.1618 33.21 81.5518 33.21C79.9418 33.21 78.5968 32.685 77.5168 31.635C76.4468 30.575 75.9118 29.28 75.9118 27.75C75.9118 26.23 76.4518 24.94 77.5318 23.88C78.6218 22.82 79.9718 22.29 81.5818 22.29C83.1918 22.29 84.5318 22.82 85.6018 23.88C86.6818 24.93 87.2218 26.22 87.2218 27.75C87.2218 29.27 86.6768 30.56 85.5868 31.62ZM81.5818 30.585C82.3718 30.585 83.0118 30.31 83.5018 29.76C84.0018 29.21 84.2518 28.54 84.2518 27.75C84.2518 26.97 83.9968 26.305 83.4868 25.755C82.9768 25.195 82.3318 24.915 81.5518 24.915C80.7718 24.915 80.1318 25.19 79.6318 25.74C79.1418 26.29 78.8968 26.96 78.8968 27.75C78.8968 28.53 79.1468 29.2 79.6468 29.76C80.1568 30.31 80.8018 30.585 81.5818 30.585ZM88.7376 33V22.5H91.6476V30.45H96.7326V33H88.7376ZM97.9808 33V22.5H100.891V30.45H105.976V33H97.9808ZM107.224 33V22.5H115.669V24.975H110.104V26.565H115.144V28.86H110.104V30.525H115.744V33H107.224ZM122.284 33.21C120.764 33.21 119.479 32.695 118.429 31.665C117.389 30.625 116.869 29.32 116.869 27.75C116.869 26.21 117.394 24.915 118.444 23.865C119.504 22.815 120.824 22.29 122.404 22.29C124.274 22.29 125.744 23.03 126.814 24.51L124.684 26.16C124.034 25.35 123.264 24.945 122.374 24.945C121.644 24.945 121.044 25.215 120.574 25.755C120.104 26.295 119.869 26.96 119.869 27.75C119.869 28.55 120.104 29.22 120.574 29.76C121.044 30.29 121.644 30.555 122.374 30.555C122.884 30.555 123.319 30.45 123.679 30.24C124.039 30.02 124.394 29.7 124.744 29.28L126.934 30.84C126.384 31.59 125.744 32.175 125.014 32.595C124.284 33.005 123.374 33.21 122.284 33.21ZM130.751 33V25.05H127.601V22.5H136.811V25.05H133.661V33H130.751ZM146.949 31.62C145.869 32.68 144.524 33.21 142.914 33.21C141.304 33.21 139.959 32.685 138.879 31.635C137.809 30.575 137.274 29.28 137.274 27.75C137.274 26.23 137.814 24.94 138.894 23.88C139.984 22.82 141.334 22.29 142.944 22.29C144.554 22.29 145.894 22.82 146.964 23.88C148.044 24.93 148.584 26.22 148.584 27.75C148.584 29.27 148.039 30.56 146.949 31.62ZM142.944 30.585C143.734 30.585 144.374 30.31 144.864 29.76C145.364 29.21 145.614 28.54 145.614 27.75C145.614 26.97 145.359 26.305 144.849 25.755C144.339 25.195 143.694 24.915 142.914 24.915C142.134 24.915 141.494 25.19 140.994 25.74C140.504 26.29 140.259 26.96 140.259 27.75C140.259 28.53 140.509 29.2 141.009 29.76C141.519 30.31 142.164 30.585 142.944 30.585ZM150.1 33V22.5H155.065C156.595 22.5 157.735 22.875 158.485 23.625C159.105 24.245 159.415 25.075 159.415 26.115C159.415 27.655 158.695 28.73 157.255 29.34L159.76 33H156.4L154.285 29.82H153.01V33H150.1ZM153.01 27.54H154.93C155.42 27.54 155.8 27.43 156.07 27.21C156.35 26.98 156.49 26.665 156.49 26.265C156.49 25.855 156.35 25.545 156.07 25.335C155.8 25.125 155.415 25.02 154.915 25.02H153.01V27.54ZM13.8049 77V66.5H16.7299V77H13.8049ZM18.6522 77V66.5H21.3672L25.6872 72.05V66.5H28.5672V77H26.0172L21.5322 71.24V77H18.6522ZM37.4097 77.18C35.8097 77.18 34.5797 76.59 33.7197 75.41L35.5947 73.64C36.1347 74.29 36.6797 74.615 37.2297 74.615C37.6097 74.615 37.9047 74.49 38.1147 74.24C38.3247 73.99 38.4297 73.625 38.4297 73.145V66.5H41.3247V73.16C41.3247 74.44 40.9797 75.425 40.2897 76.115C39.5797 76.825 38.6197 77.18 37.4097 77.18ZM47.7815 77.195C46.2415 77.195 45.0465 76.795 44.1965 75.995C43.3465 75.195 42.9215 73.995 42.9215 72.395V66.5H45.8765V72.335C45.8765 73.075 46.0465 73.635 46.3865 74.015C46.7365 74.385 47.2115 74.57 47.8115 74.57C48.4115 74.57 48.8815 74.39 49.2215 74.03C49.5715 73.67 49.7465 73.13 49.7465 72.41V66.5H52.7015V72.32C52.7015 73.96 52.2665 75.185 51.3965 75.995C50.5365 76.795 49.3315 77.195 47.7815 77.195ZM58.5487 77.18C56.5687 77.18 54.9287 76.6 53.6287 75.44L55.2487 73.505C56.2987 74.345 57.4337 74.765 58.6537 74.765C59.4537 74.765 59.8537 74.515 59.8537 74.015C59.8537 73.795 59.7337 73.615 59.4937 73.475C59.2537 73.325 58.7837 73.17 58.0837 73.01C57.4437 72.86 56.9137 72.715 56.4937 72.575C56.0837 72.425 55.6787 72.23 55.2787 71.99C54.8887 71.74 54.5987 71.425 54.4087 71.045C54.2187 70.665 54.1237 70.21 54.1237 69.68C54.1237 68.69 54.4887 67.885 55.2187 67.265C55.9587 66.635 56.9487 66.32 58.1887 66.32C59.9087 66.32 61.3487 66.785 62.5087 67.715L61.0537 69.77C60.0737 69.08 59.0937 68.735 58.1137 68.735C57.7737 68.735 57.5137 68.8 57.3337 68.93C57.1537 69.06 57.0637 69.23 57.0637 69.44C57.0637 69.68 57.1837 69.87 57.4237 70.01C57.6737 70.15 58.1587 70.3 58.8787 70.46C60.1987 70.75 61.1787 71.14 61.8187 71.63C62.4687 72.11 62.7937 72.82 62.7937 73.76C62.7937 74.82 62.4087 75.655 61.6387 76.265C60.8687 76.875 59.8387 77.18 58.5487 77.18ZM66.4808 77V69.05H63.3308V66.5H72.5408V69.05H69.3908V77H66.4808ZM81.7883 77.21C79.9283 77.21 78.4383 76.59 77.3183 75.35L79.1483 73.52C79.9283 74.32 80.7633 74.72 81.6533 74.72C82.0633 74.72 82.3883 74.625 82.6283 74.435C82.8783 74.235 83.0033 73.965 83.0033 73.625C83.0033 73.285 82.8533 73.02 82.5533 72.83C82.2533 72.64 81.8333 72.545 81.2933 72.545H80.0633L79.6433 71.03L82.0583 68.855H78.0383V66.5H85.6283V68.585L83.1233 70.73C84.9333 71.13 85.8383 72.125 85.8383 73.715C85.8383 74.765 85.4583 75.61 84.6983 76.25C83.9483 76.89 82.9783 77.21 81.7883 77.21ZM96.5099 77.21C94.9899 77.21 93.7049 76.695 92.6549 75.665C91.6149 74.625 91.0949 73.32 91.0949 71.75C91.0949 70.21 91.6199 68.915 92.6699 67.865C93.7299 66.815 95.0499 66.29 96.6299 66.29C98.4999 66.29 99.9699 67.03 101.04 68.51L98.9099 70.16C98.2599 69.35 97.4899 68.945 96.5999 68.945C95.8699 68.945 95.2699 69.215 94.7999 69.755C94.3299 70.295 94.0949 70.96 94.0949 71.75C94.0949 72.55 94.3299 73.22 94.7999 73.76C95.2699 74.29 95.8699 74.555 96.5999 74.555C97.1099 74.555 97.5449 74.45 97.9049 74.24C98.2649 74.02 98.6199 73.7 98.9699 73.28L101.16 74.84C100.61 75.59 99.9699 76.175 99.2399 76.595C98.5099 77.005 97.5999 77.21 96.5099 77.21ZM102.412 77V66.5H105.322V74.45H110.407V77H102.412ZM111.715 77V66.5H114.64V77H111.715ZM121.617 77.21C120.097 77.21 118.812 76.695 117.762 75.665C116.722 74.625 116.202 73.32 116.202 71.75C116.202 70.21 116.727 68.915 117.777 67.865C118.837 66.815 120.157 66.29 121.737 66.29C123.607 66.29 125.077 67.03 126.147 68.51L124.017 70.16C123.367 69.35 122.597 68.945 121.707 68.945C120.977 68.945 120.377 69.215 119.907 69.755C119.437 70.295 119.202 70.96 119.202 71.75C119.202 72.55 119.437 73.22 119.907 73.76C120.377 74.29 120.977 74.555 121.707 74.555C122.217 74.555 122.652 74.45 123.012 74.24C123.372 74.02 123.727 73.7 124.077 73.28L126.267 74.84C125.717 75.59 125.077 76.175 124.347 76.595C123.617 77.005 122.707 77.21 121.617 77.21ZM127.519 77V66.5H130.429V70.76L134.044 66.5H137.494L133.519 71.015L137.629 77H134.134L131.494 73.1L130.429 74.285V77H127.519ZM142.455 77.18C140.475 77.18 138.835 76.6 137.535 75.44L139.155 73.505C140.205 74.345 141.34 74.765 142.56 74.765C143.36 74.765 143.76 74.515 143.76 74.015C143.76 73.795 143.64 73.615 143.4 73.475C143.16 73.325 142.69 73.17 141.99 73.01C141.35 72.86 140.82 72.715 140.4 72.575C139.99 72.425 139.585 72.23 139.185 71.99C138.795 71.74 138.505 71.425 138.315 71.045C138.125 70.665 138.03 70.21 138.03 69.68C138.03 68.69 138.395 67.885 139.125 67.265C139.865 66.635 140.855 66.32 142.095 66.32C143.815 66.32 145.255 66.785 146.415 67.715L144.96 69.77C143.98 69.08 143 68.735 142.02 68.735C141.68 68.735 141.42 68.8 141.24 68.93C141.06 69.06 140.97 69.23 140.97 69.44C140.97 69.68 141.09 69.87 141.33 70.01C141.58 70.15 142.065 70.3 142.785 70.46C144.105 70.75 145.085 71.14 145.725 71.63C146.375 72.11 146.7 72.82 146.7 73.76C146.7 74.82 146.315 75.655 145.545 76.265C144.775 76.875 143.745 77.18 142.455 77.18Z" fill="white"/>
<path d="M16.2055 55.075L11.9455 44.5H15.2005L17.5855 51.145L19.9705 44.5H23.1655L18.9055 55.075H16.2055ZM24.242 55V44.5H27.167V55H24.242ZM28.2492 55L32.7192 44.425H35.5242L39.9942 55H36.8742L36.1092 53.125H32.0592L31.3092 55H28.2492ZM32.9142 50.86H35.2692L34.0992 47.875L32.9142 50.86ZM45.1732 55V44.5H50.5582C51.8382 44.5 52.7932 44.815 53.4232 45.445C53.8732 45.895 54.0982 46.47 54.0982 47.17C54.0982 48.26 53.5582 49.04 52.4782 49.51C53.1582 49.73 53.6732 50.045 54.0232 50.455C54.3832 50.865 54.5632 51.415 54.5632 52.105C54.5632 53.005 54.2132 53.715 53.5132 54.235C52.8132 54.745 51.8382 55 50.5882 55H45.1732ZM48.0082 52.66H50.2582C51.1882 52.66 51.6532 52.33 51.6532 51.67C51.6532 51.04 51.1782 50.725 50.2282 50.725H48.0082V52.66ZM48.0082 48.685H49.8382C50.7582 48.685 51.2182 48.37 51.2182 47.74C51.2182 47.14 50.7782 46.84 49.8982 46.84H48.0082V48.685ZM55.8958 55V44.5H58.8058V52.45H63.8908V55H55.8958ZM73.8534 53.62C72.7734 54.68 71.4284 55.21 69.8184 55.21C68.2084 55.21 66.8634 54.685 65.7834 53.635C64.7134 52.575 64.1784 51.28 64.1784 49.75C64.1784 48.23 64.7184 46.94 65.7984 45.88C66.8884 44.82 68.2384 44.29 69.8484 44.29C71.4584 44.29 72.7984 44.82 73.8684 45.88C74.9484 46.93 75.4884 48.22 75.4884 49.75C75.4884 51.27 74.9434 52.56 73.8534 53.62ZM69.8484 52.585C70.6384 52.585 71.2784 52.31 71.7684 51.76C72.2684 51.21 72.5184 50.54 72.5184 49.75C72.5184 48.97 72.2634 48.305 71.7534 47.755C71.2434 47.195 70.5984 46.915 69.8184 46.915C69.0384 46.915 68.3984 47.19 67.8984 47.74C67.4084 48.29 67.1634 48.96 67.1634 49.75C67.1634 50.53 67.4134 51.2 67.9134 51.76C68.4234 52.31 69.0684 52.585 69.8484 52.585ZM82.0592 55.21C80.5392 55.21 79.2542 54.695 78.2042 53.665C77.1642 52.625 76.6442 51.32 76.6442 49.75C76.6442 48.21 77.1692 46.915 78.2192 45.865C79.2792 44.815 80.5992 44.29 82.1792 44.29C84.0492 44.29 85.5192 45.03 86.5892 46.51L84.4592 48.16C83.8092 47.35 83.0392 46.945 82.1492 46.945C81.4192 46.945 80.8192 47.215 80.3492 47.755C79.8792 48.295 79.6442 48.96 79.6442 49.75C79.6442 50.55 79.8792 51.22 80.3492 51.76C80.8192 52.29 81.4192 52.555 82.1492 52.555C82.6592 52.555 83.0942 52.45 83.4542 52.24C83.8142 52.02 84.1692 51.7 84.5192 51.28L86.7092 52.84C86.1592 53.59 85.5192 54.175 84.7892 54.595C84.0592 55.005 83.1492 55.21 82.0592 55.21ZM87.9613 55V44.5H90.8713V48.76L94.4863 44.5H97.9363L93.9613 49.015L98.0713 55H94.5763L91.9363 51.1L90.8713 52.285V55H87.9613ZM103.153 55.21C101.633 55.21 100.348 54.695 99.298 53.665C98.258 52.625 97.738 51.32 97.738 49.75C97.738 48.21 98.263 46.915 99.313 45.865C100.373 44.815 101.693 44.29 103.273 44.29C105.143 44.29 106.613 45.03 107.683 46.51L105.553 48.16C104.903 47.35 104.133 46.945 103.243 46.945C102.513 46.945 101.913 47.215 101.443 47.755C100.973 48.295 100.738 48.96 100.738 49.75C100.738 50.55 100.973 51.22 101.443 51.76C101.913 52.29 102.513 52.555 103.243 52.555C103.753 52.555 104.188 52.45 104.548 52.24C104.908 52.02 105.263 51.7 105.613 51.28L107.803 52.84C107.253 53.59 106.613 54.175 105.883 54.595C105.153 55.005 104.243 55.21 103.153 55.21ZM109.055 55V44.5H111.965V48.43H115.7V44.5H118.61V55H115.7V51.01H111.965V55H109.055ZM119.626 55L124.096 44.425H126.901L131.371 55H128.251L127.486 53.125H123.436L122.686 55H119.626ZM124.291 50.86H126.646L125.476 47.875L124.291 50.86ZM132.45 55V44.5H135.375V55H132.45ZM137.297 55V44.5H140.012L144.332 50.05V44.5H147.212V55H144.662L140.177 49.24V55H137.297Z" fill="#00FFDF"/>
</svg>
