<svg width="79" height="12" viewBox="0 0 79 12" fill="none" xmlns="http://www.w3.org/2000/svg">
<path d="M3.185 10.13C1.963 10.13 0.992333 9.64033 0.273 8.661L1.326 7.582C1.88933 8.29267 2.50033 8.648 3.159 8.648C3.601 8.648 3.952 8.50067 4.212 8.206C4.472 7.90267 4.602 7.45633 4.602 6.867V0.899999H6.24V6.906C6.24 7.95467 5.95833 8.76067 5.395 9.324C4.85767 9.86133 4.121 10.13 3.185 10.13ZM11.5127 10.156C10.4727 10.156 9.60605 9.80933 8.91272 9.116C8.21939 8.42267 7.87272 7.57767 7.87272 6.581C7.87272 5.58433 8.22372 4.73933 8.92572 4.046C9.62772 3.344 10.4987 2.993 11.5387 2.993C12.5787 2.993 13.4454 3.33967 14.1387 4.033C14.8407 4.72633 15.1917 5.57567 15.1917 6.581C15.1917 7.569 14.8407 8.414 14.1387 9.116C13.4367 9.80933 12.5614 10.156 11.5127 10.156ZM11.5387 8.791C12.1627 8.791 12.6654 8.57867 13.0467 8.154C13.4281 7.72933 13.6187 7.205 13.6187 6.581C13.6187 5.96567 13.4194 5.44567 13.0207 5.021C12.6221 4.58767 12.1194 4.371 11.5127 4.371C10.8974 4.371 10.3991 4.58333 10.0177 5.008C9.63639 5.43267 9.44572 5.957 9.44572 6.581C9.44572 7.18767 9.64505 7.70767 10.0437 8.141C10.4424 8.57433 10.9407 8.791 11.5387 8.791ZM16.8197 2.083V0.588H18.5097V2.083H16.8197ZM16.8847 10V3.136H18.4577V10H16.8847ZM20.5134 10V3.136H22.0864V4.202C22.6324 3.396 23.3474 2.993 24.2314 2.993C24.9941 2.993 25.5921 3.23133 26.0254 3.708C26.4587 4.18467 26.6754 4.826 26.6754 5.632V10H25.1024V6.1C25.1024 5.56267 24.9724 5.151 24.7124 4.865C24.4611 4.57033 24.1014 4.423 23.6334 4.423C23.1741 4.423 22.8014 4.57467 22.5154 4.878C22.2294 5.18133 22.0864 5.59733 22.0864 6.126V10H20.5134ZM34.1234 10.052L31.9004 3.136H33.5124L34.8904 7.842L36.4114 3.11H37.7504L39.2844 7.842L40.6884 3.136H42.2614L40.0124 10.052H38.6084L37.0744 5.359L35.5274 10.052H34.1234ZM49.1747 10H47.6147V9.155C47.0601 9.81367 46.3191 10.143 45.3917 10.143C44.7071 10.143 44.1264 9.95667 43.6497 9.584C43.1817 9.20267 42.9477 8.674 42.9477 7.998C42.9477 7.26133 43.2034 6.70233 43.7147 6.321C44.2261 5.93967 44.8977 5.749 45.7297 5.749C46.3971 5.749 47.0297 5.84433 47.6277 6.035V5.905C47.6277 5.42833 47.4804 5.06433 47.1857 4.813C46.8997 4.56167 46.4837 4.436 45.9377 4.436C45.3137 4.436 44.6594 4.579 43.9747 4.865L43.5457 3.604C44.3951 3.22267 45.2661 3.032 46.1587 3.032C47.1554 3.032 47.9051 3.28333 48.4077 3.786C48.9191 4.28867 49.1747 5.00367 49.1747 5.931V10ZM47.6537 7.517V7.127C47.1857 6.945 46.6614 6.854 46.0807 6.854C45.5867 6.854 45.2011 6.94933 44.9237 7.14C44.6464 7.33067 44.5077 7.59933 44.5077 7.946C44.5077 8.258 44.6334 8.505 44.8847 8.687C45.1361 8.869 45.4524 8.96 45.8337 8.96C46.3624 8.96 46.7957 8.82567 47.1337 8.557C47.4804 8.28833 47.6537 7.94167 47.6537 7.517ZM51.0716 2.083V0.588H52.7616V2.083H51.0716ZM51.1366 10V3.136H52.7096V10H51.1366ZM57.0663 10.117C55.749 10.117 55.0903 9.44533 55.0903 8.102V4.488H54.2193V3.136H55.0903V1.251H56.6633V3.136H58.5093V4.488H56.6633V7.855C56.6633 8.427 56.945 8.713 57.5083 8.713C57.8463 8.713 58.1713 8.635 58.4833 8.479V9.766C58.0673 10 57.595 10.117 57.0663 10.117ZM60.1884 10V0.51H61.7614V10H60.1884ZM63.8431 2.083V0.588H65.5331V2.083H63.8431ZM63.9081 10V3.136H65.4811V10H63.9081ZM69.8898 10.13C68.8152 10.13 67.8445 9.78767 66.9778 9.103L67.6798 8.037C68.4252 8.60033 69.1748 8.882 69.9288 8.882C70.2668 8.882 70.5268 8.817 70.7088 8.687C70.8995 8.54833 70.9948 8.35767 70.9948 8.115C70.9948 7.99367 70.9602 7.88967 70.8908 7.803C70.8302 7.70767 70.7175 7.621 70.5528 7.543C70.3882 7.465 70.2495 7.40867 70.1368 7.374C70.0242 7.33933 69.8378 7.283 69.5778 7.205L69.4608 7.166C69.2182 7.09667 69.0102 7.03167 68.8368 6.971C68.6722 6.90167 68.4858 6.81067 68.2778 6.698C68.0698 6.58533 67.9008 6.464 67.7708 6.334C67.6408 6.19533 67.5325 6.022 67.4458 5.814C67.3592 5.606 67.3158 5.372 67.3158 5.112C67.3158 4.47933 67.5455 3.97233 68.0048 3.591C68.4728 3.20967 69.0578 3.019 69.7598 3.019C70.6525 3.019 71.4932 3.279 72.2818 3.799L71.6578 4.917C70.9472 4.48367 70.3015 4.267 69.7208 4.267C69.4175 4.267 69.1792 4.332 69.0058 4.462C68.8412 4.592 68.7588 4.76533 68.7588 4.982C68.7588 5.12933 68.8325 5.26367 68.9798 5.385C69.1358 5.50633 69.2875 5.59733 69.4348 5.658C69.5908 5.71 69.8378 5.79233 70.1758 5.905C70.1932 5.91367 70.2148 5.92233 70.2408 5.931C70.2668 5.93967 70.2885 5.944 70.3058 5.944C70.6092 6.03933 70.8648 6.13467 71.0728 6.23C71.2808 6.31667 71.4975 6.438 71.7228 6.594C71.9568 6.75 72.1345 6.945 72.2558 7.179C72.3772 7.40433 72.4378 7.66867 72.4378 7.972C72.4378 8.66533 72.1995 9.19833 71.7228 9.571C71.2462 9.94367 70.6352 10.13 69.8898 10.13ZM76.2109 10.117C74.8935 10.117 74.2349 9.44533 74.2349 8.102V4.488H73.3639V3.136H74.2349V1.251H75.8079V3.136H77.6539V4.488H75.8079V7.855C75.8079 8.427 76.0895 8.713 76.6529 8.713C76.9909 8.713 77.3159 8.635 77.6279 8.479V9.766C77.2119 10 76.7395 10.117 76.2109 10.117Z" fill="black"/>
</svg>
