<svg width="164" height="78" viewBox="0 0 164 78" fill="none" xmlns="http://www.w3.org/2000/svg">
<path d="M19.3908 2.46328V19.3113H15.2868V9.20728L11.5188 19.3113H8.20675L4.41475 9.18328V19.3113H0.310754V2.46328H5.15875L9.88675 14.1273L14.5668 2.46328H19.3908ZM21.526 12.5913C21.526 11.2153 21.782 10.0073 22.294 8.96728C22.822 7.92728 23.534 7.12728 24.43 6.56728C25.326 6.00728 26.326 5.72728 27.43 5.72728C28.374 5.72728 29.198 5.91928 29.902 6.30328C30.622 6.68728 31.174 7.19128 31.558 7.81528V5.91928H35.662V19.3113H31.558V17.4153C31.158 18.0393 30.598 18.5433 29.878 18.9273C29.174 19.3113 28.35 19.5033 27.406 19.5033C26.318 19.5033 25.326 19.2233 24.43 18.6633C23.534 18.0873 22.822 17.2793 22.294 16.2393C21.782 15.1833 21.526 13.9673 21.526 12.5913ZM31.558 12.6153C31.558 11.5913 31.27 10.7833 30.694 10.1913C30.134 9.59928 29.446 9.30328 28.63 9.30328C27.814 9.30328 27.118 9.59928 26.542 10.1913C25.982 10.7673 25.702 11.5673 25.702 12.5913C25.702 13.6153 25.982 14.4313 26.542 15.0393C27.118 15.6313 27.814 15.9273 28.63 15.9273C29.446 15.9273 30.134 15.6313 30.694 15.0393C31.27 14.4473 31.558 13.6393 31.558 12.6153ZM46.5511 19.3113L43.9831 15.5913L41.8231 19.3113H37.3831L41.7991 12.4713L37.2631 5.91928H41.8711L44.4391 9.61528L46.5991 5.91928H51.0391L46.5511 12.6633L51.1591 19.3113H46.5511ZM54.8044 4.52728C54.0844 4.52728 53.4924 4.31928 53.0284 3.90328C52.5804 3.47128 52.3564 2.94328 52.3564 2.31928C52.3564 1.67928 52.5804 1.15128 53.0284 0.735278C53.4924 0.303278 54.0844 0.0872779 54.8044 0.0872779C55.5084 0.0872779 56.0844 0.303278 56.5324 0.735278C56.9964 1.15128 57.2284 1.67928 57.2284 2.31928C57.2284 2.94328 56.9964 3.47128 56.5324 3.90328C56.0844 4.31928 55.5084 4.52728 54.8044 4.52728ZM56.8444 5.91928V19.3113H52.7404V5.91928H56.8444ZM76.9066 5.77528C78.5706 5.77528 79.8906 6.27928 80.8666 7.28728C81.8586 8.29528 82.3546 9.69528 82.3546 11.4873V19.3113H78.2746V12.0393C78.2746 11.1753 78.0426 10.5113 77.5786 10.0473C77.1306 9.56728 76.5066 9.32728 75.7066 9.32728C74.9066 9.32728 74.2746 9.56728 73.8106 10.0473C73.3626 10.5113 73.1386 11.1753 73.1386 12.0393V19.3113H69.0586V12.0393C69.0586 11.1753 68.8266 10.5113 68.3626 10.0473C67.9146 9.56728 67.2906 9.32728 66.4906 9.32728C65.6906 9.32728 65.0586 9.56728 64.5946 10.0473C64.1466 10.5113 63.9226 11.1753 63.9226 12.0393V19.3113H59.8186V5.91928H63.9226V7.59928C64.3386 7.03928 64.8826 6.59928 65.5546 6.27928C66.2266 5.94328 66.9866 5.77528 67.8346 5.77528C68.8426 5.77528 69.7386 5.99128 70.5226 6.42328C71.3226 6.85528 71.9466 7.47128 72.3946 8.27128C72.8586 7.53528 73.4906 6.93528 74.2906 6.47128C75.0906 6.00728 75.9626 5.77528 76.9066 5.77528ZM87.2888 4.52728C86.5688 4.52728 85.9768 4.31928 85.5128 3.90328C85.0648 3.47128 84.8408 2.94328 84.8408 2.31928C84.8408 1.67928 85.0648 1.15128 85.5128 0.735278C85.9768 0.303278 86.5688 0.0872779 87.2888 0.0872779C87.9928 0.0872779 88.5688 0.303278 89.0168 0.735278C89.4808 1.15128 89.7128 1.67928 89.7128 2.31928C89.7128 2.94328 89.4808 3.47128 89.0168 3.90328C88.5688 4.31928 87.9928 4.52728 87.2888 4.52728ZM89.3288 5.91928V19.3113H85.2248V5.91928H89.3288ZM96.1429 15.9273H101.951V19.3113H91.5589V16.0473L97.1269 9.30328H91.6069V5.91928H101.831V9.18328L96.1429 15.9273ZM116.833 12.3993C116.833 12.7833 116.809 13.1833 116.761 13.5993H107.473C107.537 14.4313 107.801 15.0713 108.265 15.5193C108.745 15.9513 109.329 16.1673 110.017 16.1673C111.041 16.1673 111.753 15.7353 112.153 14.8713H116.521C116.297 15.7513 115.889 16.5433 115.297 17.2473C114.721 17.9513 113.993 18.5033 113.113 18.9033C112.233 19.3033 111.249 19.5033 110.161 19.5033C108.849 19.5033 107.681 19.2233 106.657 18.6633C105.633 18.1033 104.833 17.3033 104.257 16.2633C103.681 15.2233 103.393 14.0073 103.393 12.6153C103.393 11.2233 103.673 10.0073 104.233 8.96728C104.809 7.92728 105.609 7.12728 106.633 6.56728C107.657 6.00728 108.833 5.72728 110.161 5.72728C111.457 5.72728 112.609 5.99928 113.617 6.54328C114.625 7.08728 115.409 7.86328 115.969 8.87128C116.545 9.87928 116.833 11.0553 116.833 12.3993ZM112.633 11.3193C112.633 10.6153 112.393 10.0553 111.913 9.63928C111.433 9.22328 110.833 9.01528 110.113 9.01528C109.425 9.01528 108.841 9.21528 108.361 9.61528C107.897 10.0153 107.609 10.5833 107.497 11.3193H112.633ZM14.9028 31.4633V48.3113H10.7988V41.3753H4.41475V48.3113H0.310754V31.4633H4.41475V38.0633H10.7988V31.4633H14.9028ZM23.9614 48.5033C22.6494 48.5033 21.4654 48.2233 20.4094 47.6633C19.3694 47.1033 18.5454 46.3033 17.9374 45.2633C17.3454 44.2233 17.0494 43.0073 17.0494 41.6153C17.0494 40.2393 17.3534 39.0313 17.9614 37.9913C18.5694 36.9353 19.4014 36.1273 20.4574 35.5673C21.5134 35.0073 22.6974 34.7273 24.0094 34.7273C25.3214 34.7273 26.5054 35.0073 27.5614 35.5673C28.6174 36.1273 29.4494 36.9353 30.0574 37.9913C30.6654 39.0313 30.9694 40.2393 30.9694 41.6153C30.9694 42.9913 30.6574 44.2073 30.0334 45.2633C29.4254 46.3033 28.5854 47.1033 27.5134 47.6633C26.4574 48.2233 25.2734 48.5033 23.9614 48.5033ZM23.9614 44.9513C24.7454 44.9513 25.4094 44.6633 25.9534 44.0873C26.5134 43.5113 26.7934 42.6873 26.7934 41.6153C26.7934 40.5433 26.5214 39.7193 25.9774 39.1433C25.4494 38.5673 24.7934 38.2793 24.0094 38.2793C23.2094 38.2793 22.5454 38.5673 22.0174 39.1433C21.4894 39.7033 21.2254 40.5273 21.2254 41.6153C21.2254 42.6873 21.4814 43.5113 21.9934 44.0873C22.5214 44.6633 23.1774 44.9513 23.9614 44.9513ZM37.2507 30.5513V48.3113H33.1467V30.5513H37.2507ZM42.2888 33.5273C41.5688 33.5273 40.9768 33.3193 40.5128 32.9033C40.0648 32.4713 39.8408 31.9433 39.8408 31.3193C39.8408 30.6793 40.0648 30.1513 40.5128 29.7353C40.9768 29.3033 41.5688 29.0873 42.2888 29.0873C42.9928 29.0873 43.5688 29.3033 44.0168 29.7353C44.4808 30.1513 44.7128 30.6793 44.7128 31.3193C44.7128 31.9433 44.4808 32.4713 44.0168 32.9033C43.5688 33.3193 42.9928 33.5273 42.2888 33.5273ZM44.3288 34.9193V48.3113H40.2248V34.9193H44.3288ZM46.4869 41.5913C46.4869 40.2153 46.7429 39.0073 47.2549 37.9673C47.7829 36.9273 48.4949 36.1273 49.3909 35.5673C50.2869 35.0073 51.2869 34.7273 52.3909 34.7273C53.2709 34.7273 54.0709 34.9113 54.7909 35.2793C55.5269 35.6473 56.1029 36.1433 56.5189 36.7673V30.5513H60.6229V48.3113H56.5189V46.3913C56.1349 47.0313 55.5829 47.5433 54.8629 47.9273C54.1589 48.3113 53.3349 48.5033 52.3909 48.5033C51.2869 48.5033 50.2869 48.2233 49.3909 47.6633C48.4949 47.0873 47.7829 46.2793 47.2549 45.2393C46.7429 44.1833 46.4869 42.9673 46.4869 41.5913ZM56.5189 41.6153C56.5189 40.5913 56.2309 39.7833 55.6549 39.1913C55.0949 38.5993 54.4069 38.3033 53.5909 38.3033C52.7749 38.3033 52.0789 38.5993 51.5029 39.1913C50.9429 39.7673 50.6629 40.5673 50.6629 41.5913C50.6629 42.6153 50.9429 43.4313 51.5029 44.0393C52.0789 44.6313 52.7749 44.9273 53.5909 44.9273C54.4069 44.9273 55.0949 44.6313 55.6549 44.0393C56.2309 43.4473 56.5189 42.6393 56.5189 41.6153ZM62.776 41.5913C62.776 40.2153 63.032 39.0073 63.544 37.9673C64.072 36.9273 64.784 36.1273 65.68 35.5673C66.576 35.0073 67.576 34.7273 68.68 34.7273C69.624 34.7273 70.448 34.9193 71.152 35.3033C71.872 35.6873 72.424 36.1913 72.808 36.8153V34.9193H76.912V48.3113H72.808V46.4153C72.408 47.0393 71.848 47.5433 71.128 47.9273C70.424 48.3113 69.6 48.5033 68.656 48.5033C67.568 48.5033 66.576 48.2233 65.68 47.6633C64.784 47.0873 64.072 46.2793 63.544 45.2393C63.032 44.1833 62.776 42.9673 62.776 41.5913ZM72.808 41.6153C72.808 40.5913 72.52 39.7833 71.944 39.1913C71.384 38.5993 70.696 38.3033 69.88 38.3033C69.064 38.3033 68.368 38.5993 67.792 39.1913C67.232 39.7673 66.952 40.5673 66.952 41.5913C66.952 42.6153 67.232 43.4313 67.792 44.0393C68.368 44.6313 69.064 44.9273 69.88 44.9273C70.696 44.9273 71.384 44.6313 71.944 44.0393C72.52 43.4473 72.808 42.6393 72.808 41.6153ZM93.5611 34.9193L85.1611 54.6713H80.7451L83.8171 47.8553L78.3691 34.9193H82.9531L86.0491 43.2953L89.1211 34.9193H93.5611ZM106.227 48.4793C104.995 48.4793 103.891 48.2793 102.915 47.8793C101.939 47.4793 101.155 46.8873 100.563 46.1033C99.9871 45.3193 99.6831 44.3753 99.6511 43.2713H104.019C104.083 43.8953 104.299 44.3753 104.667 44.7113C105.035 45.0313 105.515 45.1913 106.107 45.1913C106.715 45.1913 107.195 45.0553 107.547 44.7833C107.899 44.4953 108.075 44.1033 108.075 43.6073C108.075 43.1913 107.931 42.8473 107.643 42.5753C107.371 42.3033 107.027 42.0793 106.611 41.9033C106.211 41.7273 105.635 41.5273 104.883 41.3033C103.795 40.9673 102.907 40.6313 102.219 40.2953C101.531 39.9593 100.939 39.4633 100.443 38.8073C99.9471 38.1513 99.6991 37.2953 99.6991 36.2393C99.6991 34.6713 100.267 33.4473 101.403 32.5673C102.539 31.6713 104.019 31.2233 105.843 31.2233C107.699 31.2233 109.195 31.6713 110.331 32.5673C111.467 33.4473 112.075 34.6793 112.155 36.2633H107.715C107.683 35.7193 107.483 35.2953 107.115 34.9913C106.747 34.6713 106.275 34.5113 105.699 34.5113C105.203 34.5113 104.803 34.6473 104.499 34.9193C104.195 35.1753 104.043 35.5513 104.043 36.0473C104.043 36.5913 104.299 37.0153 104.811 37.3193C105.323 37.6233 106.123 37.9513 107.211 38.3033C108.299 38.6713 109.179 39.0233 109.851 39.3593C110.539 39.6953 111.131 40.1833 111.627 40.8233C112.123 41.4633 112.371 42.2873 112.371 43.2953C112.371 44.2553 112.123 45.1273 111.627 45.9113C111.147 46.6953 110.443 47.3193 109.515 47.7833C108.587 48.2473 107.491 48.4793 106.227 48.4793ZM114.081 41.5913C114.081 40.2153 114.337 39.0073 114.849 37.9673C115.377 36.9273 116.089 36.1273 116.985 35.5673C117.881 35.0073 118.881 34.7273 119.985 34.7273C120.929 34.7273 121.753 34.9193 122.457 35.3033C123.177 35.6873 123.729 36.1913 124.113 36.8153V34.9193H128.217V48.3113H124.113V46.4153C123.713 47.0393 123.153 47.5433 122.433 47.9273C121.729 48.3113 120.905 48.5033 119.961 48.5033C118.873 48.5033 117.881 48.2233 116.985 47.6633C116.089 47.0873 115.377 46.2793 114.849 45.2393C114.337 44.1833 114.081 42.9673 114.081 41.5913ZM124.113 41.6153C124.113 40.5913 123.825 39.7833 123.249 39.1913C122.689 38.5993 122.001 38.3033 121.185 38.3033C120.369 38.3033 119.673 38.5993 119.097 39.1913C118.537 39.7673 118.257 40.5673 118.257 41.5913C118.257 42.6153 118.537 43.4313 119.097 44.0393C119.673 44.6313 120.369 44.9273 121.185 44.9273C122.001 44.9273 122.689 44.6313 123.249 44.0393C123.825 43.4473 124.113 42.6393 124.113 41.6153ZM135.29 30.5513V48.3113H131.186V30.5513H135.29ZM150.888 41.3993C150.888 41.7833 150.864 42.1833 150.816 42.5993H141.528C141.592 43.4313 141.856 44.0713 142.32 44.5193C142.8 44.9513 143.384 45.1673 144.072 45.1673C145.096 45.1673 145.808 44.7353 146.208 43.8713H150.576C150.352 44.7513 149.944 45.5433 149.352 46.2473C148.776 46.9513 148.048 47.5033 147.168 47.9033C146.288 48.3033 145.304 48.5033 144.216 48.5033C142.904 48.5033 141.736 48.2233 140.712 47.6633C139.688 47.1033 138.888 46.3033 138.312 45.2633C137.736 44.2233 137.448 43.0073 137.448 41.6153C137.448 40.2233 137.728 39.0073 138.288 37.9673C138.864 36.9273 139.664 36.1273 140.688 35.5673C141.712 35.0073 142.888 34.7273 144.216 34.7273C145.512 34.7273 146.664 34.9993 147.672 35.5433C148.68 36.0873 149.464 36.8633 150.024 37.8713C150.6 38.8793 150.888 40.0553 150.888 41.3993ZM146.688 40.3193C146.688 39.6153 146.448 39.0553 145.968 38.6393C145.488 38.2233 144.888 38.0153 144.168 38.0153C143.48 38.0153 142.896 38.2153 142.416 38.6153C141.952 39.0153 141.664 39.5833 141.552 40.3193H146.688ZM158.501 48.5033C157.333 48.5033 156.293 48.3033 155.381 47.9033C154.469 47.5033 153.749 46.9593 153.221 46.2713C152.693 45.5673 152.397 44.7833 152.333 43.9193H156.389C156.437 44.3833 156.653 44.7593 157.037 45.0473C157.421 45.3353 157.893 45.4793 158.453 45.4793C158.965 45.4793 159.357 45.3833 159.629 45.1913C159.917 44.9833 160.061 44.7193 160.061 44.3993C160.061 44.0153 159.861 43.7353 159.461 43.5593C159.061 43.3673 158.413 43.1593 157.517 42.9353C156.557 42.7113 155.757 42.4793 155.117 42.2393C154.477 41.9833 153.925 41.5913 153.461 41.0633C152.997 40.5193 152.765 39.7913 152.765 38.8793C152.765 38.1113 152.973 37.4153 153.389 36.7913C153.821 36.1513 154.445 35.6473 155.261 35.2793C156.093 34.9113 157.077 34.7273 158.213 34.7273C159.893 34.7273 161.213 35.1433 162.173 35.9753C163.149 36.8073 163.709 37.9113 163.853 39.2873H160.061C159.997 38.8233 159.789 38.4553 159.437 38.1833C159.101 37.9113 158.653 37.7753 158.093 37.7753C157.613 37.7753 157.245 37.8713 156.989 38.0633C156.733 38.2393 156.605 38.4873 156.605 38.8073C156.605 39.1913 156.805 39.4793 157.205 39.6713C157.621 39.8633 158.261 40.0553 159.125 40.2473C160.117 40.5033 160.925 40.7593 161.549 41.0153C162.173 41.2553 162.717 41.6553 163.181 42.2153C163.661 42.7593 163.909 43.4953 163.925 44.4233C163.925 45.2073 163.701 45.9113 163.253 46.5353C162.821 47.1433 162.189 47.6233 161.357 47.9753C160.541 48.3273 159.589 48.5033 158.501 48.5033ZM15.3828 77.3113H11.2788L4.41475 66.9193V77.3113H0.310754V60.4633H4.41475L11.2788 70.9033V60.4633H15.3828V77.3113ZM24.4536 77.5033C23.1416 77.5033 21.9576 77.2233 20.9016 76.6633C19.8616 76.1033 19.0376 75.3033 18.4296 74.2633C17.8376 73.2233 17.5416 72.0073 17.5416 70.6153C17.5416 69.2393 17.8456 68.0313 18.4536 66.9913C19.0616 65.9353 19.8936 65.1273 20.9496 64.5673C22.0056 64.0073 23.1896 63.7273 24.5016 63.7273C25.8136 63.7273 26.9976 64.0073 28.0536 64.5673C29.1096 65.1273 29.9416 65.9353 30.5496 66.9913C31.1576 68.0313 31.4616 69.2393 31.4616 70.6153C31.4616 71.9913 31.1496 73.2073 30.5256 74.2633C29.9176 75.3033 29.0776 76.1033 28.0056 76.6633C26.9496 77.2233 25.7656 77.5033 24.4536 77.5033ZM24.4536 73.9513C25.2376 73.9513 25.9016 73.6633 26.4456 73.0873C27.0056 72.5113 27.2856 71.6873 27.2856 70.6153C27.2856 69.5433 27.0136 68.7193 26.4696 68.1433C25.9416 67.5673 25.2856 67.2793 24.5016 67.2793C23.7016 67.2793 23.0376 67.5673 22.5096 68.1433C21.9816 68.7033 21.7176 69.5273 21.7176 70.6153C21.7176 71.6873 21.9736 72.5113 22.4856 73.0873C23.0136 73.6633 23.6696 73.9513 24.4536 73.9513ZM52.8629 63.9193L49.2389 77.3113H44.7029L42.5909 68.6233L40.4069 77.3113H35.8949L32.2469 63.9193H36.3509L38.2469 73.4953L40.5029 63.9193H44.8469L47.1269 73.4473L48.9989 63.9193H52.8629ZM59.8279 59.8633L59.3479 71.3593H55.8679L55.3879 59.8633H59.8279ZM57.6679 77.5033C56.9479 77.5033 56.3559 77.2953 55.8919 76.8793C55.4439 76.4473 55.2199 75.9193 55.2199 75.2953C55.2199 74.6553 55.4439 74.1193 55.8919 73.6873C56.3559 73.2553 56.9479 73.0393 57.6679 73.0393C58.3719 73.0393 58.9479 73.2553 59.3959 73.6873C59.8599 74.1193 60.0919 74.6553 60.0919 75.2953C60.0919 75.9193 59.8599 76.4473 59.3959 76.8793C58.9479 77.2953 58.3719 77.5033 57.6679 77.5033Z" fill="white"/>
</svg>
