<svg width="183" height="15" viewBox="0 0 183 15" fill="none" xmlns="http://www.w3.org/2000/svg">
<path d="M10.4031 5.05848C10.4031 5.83114 10.2257 6.54048 9.87106 7.18648C9.51639 7.81981 8.97173 8.33281 8.23706 8.72548C7.50239 9.11814 6.59039 9.31448 5.50106 9.31448H3.48706V14.1025H0.238059V0.764478H5.50106C6.56506 0.764478 7.46439 0.948144 8.19906 1.31548C8.93373 1.68281 9.48473 2.18948 9.85206 2.83548C10.2194 3.48148 10.4031 4.22248 10.4031 5.05848ZM5.25406 6.73048C5.87473 6.73048 6.33706 6.58481 6.64106 6.29348C6.94506 6.00214 7.09706 5.59048 7.09706 5.05848C7.09706 4.52648 6.94506 4.11481 6.64106 3.82348C6.33706 3.53214 5.87473 3.38648 5.25406 3.38648H3.48706V6.73048H5.25406ZM15.3435 0.0424778V14.1025H12.0945V0.0424778H15.3435ZM17.052 8.78248C17.052 7.69314 17.2547 6.73681 17.66 5.91348C18.078 5.09014 18.6417 4.45681 19.351 4.01348C20.0604 3.57014 20.852 3.34848 21.726 3.34848C22.4734 3.34848 23.1257 3.50048 23.683 3.80448C24.253 4.10848 24.69 4.50748 24.994 5.00148V3.50048H28.243V14.1025H24.994V12.6015C24.6774 13.0955 24.234 13.4945 23.664 13.7985C23.1067 14.1025 22.4544 14.2545 21.707 14.2545C20.8457 14.2545 20.0604 14.0328 19.351 13.5895C18.6417 13.1335 18.078 12.4938 17.66 11.6705C17.2547 10.8345 17.052 9.87181 17.052 8.78248ZM24.994 8.80148C24.994 7.99081 24.766 7.35114 24.31 6.88248C23.8667 6.41381 23.322 6.17948 22.676 6.17948C22.03 6.17948 21.479 6.41381 21.023 6.88248C20.5797 7.33848 20.358 7.97181 20.358 8.78248C20.358 9.59314 20.5797 10.2391 21.023 10.7205C21.479 11.1891 22.03 11.4235 22.676 11.4235C23.322 11.4235 23.8667 11.1891 24.31 10.7205C24.766 10.2518 24.994 9.61214 24.994 8.80148ZM29.9475 8.80148C29.9475 7.69948 30.1692 6.73681 30.6125 5.91348C31.0685 5.09014 31.6955 4.45681 32.4935 4.01348C33.3042 3.57014 34.2289 3.34848 35.2675 3.34848C36.5975 3.34848 37.7059 3.69681 38.5925 4.39348C39.4919 5.09014 40.0809 6.07181 40.3595 7.33848H36.9015C36.6102 6.52781 36.0465 6.12248 35.2105 6.12248C34.6152 6.12248 34.1402 6.35681 33.7855 6.82548C33.4309 7.28148 33.2535 7.94014 33.2535 8.80148C33.2535 9.66281 33.4309 10.3278 33.7855 10.7965C34.1402 11.2525 34.6152 11.4805 35.2105 11.4805C36.0465 11.4805 36.6102 11.0751 36.9015 10.2645H40.3595C40.0809 11.5058 39.4919 12.4811 38.5925 13.1905C37.6932 13.8998 36.5849 14.2545 35.2675 14.2545C34.2289 14.2545 33.3042 14.0328 32.4935 13.5895C31.6955 13.1461 31.0685 12.5128 30.6125 11.6895C30.1692 10.8661 29.9475 9.90348 29.9475 8.80148ZM52.0914 8.63048C52.0914 8.93448 52.0724 9.25114 52.0344 9.58048H44.6814C44.7321 10.2391 44.9411 10.7458 45.3084 11.1005C45.6884 11.4425 46.1508 11.6135 46.6954 11.6135C47.5061 11.6135 48.0698 11.2715 48.3864 10.5875H51.8444C51.6671 11.2841 51.3441 11.9111 50.8754 12.4685C50.4194 13.0258 49.8431 13.4628 49.1464 13.7795C48.4498 14.0961 47.6708 14.2545 46.8094 14.2545C45.7708 14.2545 44.8461 14.0328 44.0354 13.5895C43.2248 13.1461 42.5914 12.5128 42.1354 11.6895C41.6794 10.8661 41.4514 9.90348 41.4514 8.80148C41.4514 7.69948 41.6731 6.73681 42.1164 5.91348C42.5724 5.09014 43.2058 4.45681 44.0164 4.01348C44.8271 3.57014 45.7581 3.34848 46.8094 3.34848C47.8354 3.34848 48.7474 3.56381 49.5454 3.99448C50.3434 4.42514 50.9641 5.03948 51.4074 5.83748C51.8634 6.63548 52.0914 7.56648 52.0914 8.63048ZM48.7664 7.77548C48.7664 7.21814 48.5764 6.77481 48.1964 6.44548C47.8164 6.11614 47.3414 5.95148 46.7714 5.95148C46.2268 5.95148 45.7644 6.10981 45.3844 6.42648C45.0171 6.74314 44.7891 7.19281 44.7004 7.77548H48.7664ZM69.2698 0.764478L64.6528 9.69448V14.1025H61.4038V9.69448L56.7868 0.764478H60.4728L63.0568 6.35048L65.6218 0.764478H69.2698ZM75.4049 14.2545C74.3662 14.2545 73.4289 14.0328 72.5929 13.5895C71.7695 13.1461 71.1172 12.5128 70.6359 11.6895C70.1672 10.8661 69.9329 9.90348 69.9329 8.80148C69.9329 7.71214 70.1735 6.75581 70.6549 5.93248C71.1362 5.09648 71.7949 4.45681 72.6309 4.01348C73.4669 3.57014 74.4042 3.34848 75.4429 3.34848C76.4815 3.34848 77.4189 3.57014 78.2549 4.01348C79.0909 4.45681 79.7495 5.09648 80.2309 5.93248C80.7122 6.75581 80.9529 7.71214 80.9529 8.80148C80.9529 9.89081 80.7059 10.8535 80.2119 11.6895C79.7305 12.5128 79.0655 13.1461 78.2169 13.5895C77.3809 14.0328 76.4435 14.2545 75.4049 14.2545ZM75.4049 11.4425C76.0255 11.4425 76.5512 11.2145 76.9819 10.7585C77.4252 10.3025 77.6469 9.65014 77.6469 8.80148C77.6469 7.95281 77.4315 7.30048 77.0009 6.84448C76.5829 6.38848 76.0635 6.16048 75.4429 6.16048C74.8095 6.16048 74.2839 6.38848 73.8659 6.84448C73.4479 7.28781 73.2389 7.94014 73.2389 8.80148C73.2389 9.65014 73.4415 10.3025 73.8469 10.7585C74.2649 11.2145 74.7842 11.4425 75.4049 11.4425ZM93.1455 3.50048V14.1025H89.8965V12.6585C89.5672 13.1271 89.1175 13.5071 88.5475 13.7985C87.9902 14.0771 87.3695 14.2165 86.6855 14.2165C85.8749 14.2165 85.1592 14.0391 84.5385 13.6845C83.9179 13.3171 83.4365 12.7915 83.0945 12.1075C82.7525 11.4235 82.5815 10.6191 82.5815 9.69448V3.50048H85.8115V9.25748C85.8115 9.96681 85.9952 10.5178 86.3625 10.9105C86.7299 11.3031 87.2239 11.4995 87.8445 11.4995C88.4779 11.4995 88.9782 11.3031 89.3455 10.9105C89.7129 10.5178 89.8965 9.96681 89.8965 9.25748V3.50048H93.1455ZM98.7283 5.26748C99.1083 4.68481 99.5833 4.22881 100.153 3.89948C100.723 3.55748 101.357 3.38648 102.053 3.38648V6.82548H101.16C100.35 6.82548 99.7416 7.00281 99.3363 7.35748C98.9309 7.69948 98.7283 8.30748 98.7283 9.18148V14.1025H95.4793V3.50048H98.7283V5.26748ZM115.936 11.7465H110.958L110.16 14.1025H106.759L111.585 0.764478H115.347L120.173 14.1025H116.734L115.936 11.7465ZM115.1 9.23848L113.447 4.35548L111.813 9.23848H115.1ZM120.995 8.78248C120.995 7.69314 121.198 6.73681 121.603 5.91348C122.021 5.09014 122.585 4.45681 123.294 4.01348C124.004 3.57014 124.795 3.34848 125.669 3.34848C126.366 3.34848 126.999 3.49414 127.569 3.78548C128.152 4.07681 128.608 4.46948 128.937 4.96348V0.0424778H132.186V14.1025H128.937V12.5825C128.633 13.0891 128.196 13.4945 127.626 13.7985C127.069 14.1025 126.417 14.2545 125.669 14.2545C124.795 14.2545 124.004 14.0328 123.294 13.5895C122.585 13.1335 122.021 12.4938 121.603 11.6705C121.198 10.8345 120.995 9.87181 120.995 8.78248ZM128.937 8.80148C128.937 7.99081 128.709 7.35114 128.253 6.88248C127.81 6.41381 127.265 6.17948 126.619 6.17948C125.973 6.17948 125.422 6.41381 124.966 6.88248C124.523 7.33848 124.301 7.97181 124.301 8.78248C124.301 9.59314 124.523 10.2391 124.966 10.7205C125.422 11.1891 125.973 11.4235 126.619 11.4235C127.265 11.4235 127.81 11.1891 128.253 10.7205C128.709 10.2518 128.937 9.61214 128.937 8.80148ZM150.115 0.764478V14.1025H146.866V8.61148H141.812V14.1025H138.563V0.764478H141.812V5.98948H146.866V0.764478H150.115ZM162.455 8.63048C162.455 8.93448 162.436 9.25114 162.398 9.58048H155.045C155.095 10.2391 155.304 10.7458 155.672 11.1005C156.052 11.4425 156.514 11.6135 157.059 11.6135C157.869 11.6135 158.433 11.2715 158.75 10.5875H162.208C162.03 11.2841 161.707 11.9111 161.239 12.4685C160.783 13.0258 160.206 13.4628 159.51 13.7795C158.813 14.0961 158.034 14.2545 157.173 14.2545C156.134 14.2545 155.209 14.0328 154.399 13.5895C153.588 13.1461 152.955 12.5128 152.499 11.6895C152.043 10.8661 151.815 9.90348 151.815 8.80148C151.815 7.69948 152.036 6.73681 152.48 5.91348C152.936 5.09014 153.569 4.45681 154.38 4.01348C155.19 3.57014 156.121 3.34848 157.173 3.34848C158.199 3.34848 159.111 3.56381 159.909 3.99448C160.707 4.42514 161.327 5.03948 161.771 5.83748C162.227 6.63548 162.455 7.56648 162.455 8.63048ZM159.13 7.77548C159.13 7.21814 158.94 6.77481 158.56 6.44548C158.18 6.11614 157.705 5.95148 157.135 5.95148C156.59 5.95148 156.128 6.10981 155.748 6.42648C155.38 6.74314 155.152 7.19281 155.064 7.77548H159.13ZM167.418 5.26748C167.798 4.68481 168.273 4.22881 168.843 3.89948C169.413 3.55748 170.046 3.38648 170.743 3.38648V6.82548H169.85C169.039 6.82548 168.431 7.00281 168.026 7.35748C167.62 7.69948 167.418 8.30748 167.418 9.18148V14.1025H164.169V3.50048H167.418V5.26748ZM182.29 8.63048C182.29 8.93448 182.271 9.25114 182.233 9.58048H174.88C174.93 10.2391 175.139 10.7458 175.507 11.1005C175.887 11.4425 176.349 11.6135 176.894 11.6135C177.704 11.6135 178.268 11.2715 178.585 10.5875H182.043C181.865 11.2841 181.542 11.9111 181.074 12.4685C180.618 13.0258 180.041 13.4628 179.345 13.7795C178.648 14.0961 177.869 14.2545 177.008 14.2545C175.969 14.2545 175.044 14.0328 174.234 13.5895C173.423 13.1461 172.79 12.5128 172.334 11.6895C171.878 10.8661 171.65 9.90348 171.65 8.80148C171.65 7.69948 171.871 6.73681 172.315 5.91348C172.771 5.09014 173.404 4.45681 174.215 4.01348C175.025 3.57014 175.956 3.34848 177.008 3.34848C178.034 3.34848 178.946 3.56381 179.744 3.99448C180.542 4.42514 181.162 5.03948 181.606 5.83748C182.062 6.63548 182.29 7.56648 182.29 8.63048ZM178.965 7.77548C178.965 7.21814 178.775 6.77481 178.395 6.44548C178.015 6.11614 177.54 5.95148 176.97 5.95148C176.425 5.95148 175.963 6.10981 175.583 6.42648C175.215 6.74314 174.987 7.19281 174.899 7.77548H178.965Z" fill="white"/>
</svg>
