<svg width="159" height="37" viewBox="0 0 159 37" fill="none" xmlns="http://www.w3.org/2000/svg">
<path d="M9.73881 12.8712H4.76081L3.96281 15.2272H0.561813L5.38781 1.88917H9.14981L13.9758 15.2272H10.5368L9.73881 12.8712ZM8.90281 10.3632L7.24981 5.48017L5.61581 10.3632H8.90281ZM14.7986 9.90717C14.7986 8.81784 15.0013 7.86151 15.4066 7.03817C15.8246 6.21484 16.3883 5.58151 17.0976 5.13817C17.8069 4.69484 18.5986 4.47317 19.4726 4.47317C20.1693 4.47317 20.8026 4.61884 21.3726 4.91017C21.9553 5.20151 22.4113 5.59417 22.7406 6.08817V1.16717H25.9896V15.2272H22.7406V13.7072C22.4366 14.2138 21.9996 14.6192 21.4296 14.9232C20.8723 15.2272 20.2199 15.3792 19.4726 15.3792C18.5986 15.3792 17.8069 15.1575 17.0976 14.7142C16.3883 14.2582 15.8246 13.6185 15.4066 12.7952C15.0013 11.9592 14.7986 10.9965 14.7986 9.90717ZM22.7406 9.92617C22.7406 9.11551 22.5126 8.47584 22.0566 8.00717C21.6133 7.53851 21.0686 7.30417 20.4226 7.30417C19.7766 7.30417 19.2256 7.53851 18.7696 8.00717C18.3263 8.46317 18.1046 9.09651 18.1046 9.90717C18.1046 10.7178 18.3263 11.3638 18.7696 11.8452C19.2256 12.3138 19.7766 12.5482 20.4226 12.5482C21.0686 12.5482 21.6133 12.3138 22.0566 11.8452C22.5126 11.3765 22.7406 10.7368 22.7406 9.92617ZM33.1091 12.1872L35.4081 4.62517H38.8661L35.1041 15.2272H31.0951L27.3331 4.62517H30.8101L33.1091 12.1872ZM50.2277 9.75517C50.2277 10.0592 50.2087 10.3758 50.1707 10.7052H42.8177C42.8683 11.3638 43.0773 11.8705 43.4447 12.2252C43.8247 12.5672 44.287 12.7382 44.8317 12.7382C45.6423 12.7382 46.206 12.3962 46.5227 11.7122H49.9807C49.8033 12.4088 49.4803 13.0358 49.0117 13.5932C48.5557 14.1505 47.9793 14.5875 47.2827 14.9042C46.586 15.2208 45.807 15.3792 44.9457 15.3792C43.907 15.3792 42.9823 15.1575 42.1717 14.7142C41.361 14.2708 40.7277 13.6375 40.2717 12.8142C39.8157 11.9908 39.5877 11.0282 39.5877 9.92617C39.5877 8.82417 39.8093 7.86151 40.2527 7.03817C40.7087 6.21484 41.342 5.58151 42.1527 5.13817C42.9633 4.69484 43.8943 4.47317 44.9457 4.47317C45.9717 4.47317 46.8837 4.68851 47.6817 5.11917C48.4797 5.54984 49.1003 6.16417 49.5437 6.96217C49.9997 7.76017 50.2277 8.69117 50.2277 9.75517ZM46.9027 8.90017C46.9027 8.34284 46.7127 7.89951 46.3327 7.57017C45.9527 7.24084 45.4777 7.07617 44.9077 7.07617C44.363 7.07617 43.9007 7.23451 43.5207 7.55117C43.1533 7.86784 42.9253 8.31751 42.8367 8.90017H46.9027ZM55.1907 6.39217C55.5707 5.80951 56.0457 5.35351 56.6157 5.02417C57.1857 4.68217 57.819 4.51117 58.5157 4.51117V7.95017H57.6227C56.812 7.95017 56.204 8.12751 55.7987 8.48217C55.3933 8.82417 55.1907 9.43217 55.1907 10.3062V15.2272H51.9417V4.62517H55.1907V6.39217ZM65.9776 12.4722V15.2272H64.3246C63.1466 15.2272 62.2283 14.9422 61.5696 14.3722C60.911 13.7895 60.5816 12.8458 60.5816 11.5412V7.32317H59.2896V4.62517H60.5816V2.04117H63.8306V4.62517H65.9586V7.32317H63.8306V11.5792C63.8306 11.8958 63.9066 12.1238 64.0586 12.2632C64.2106 12.4025 64.464 12.4722 64.8186 12.4722H65.9776ZM69.4214 3.52317C68.8514 3.52317 68.3827 3.35851 68.0154 3.02917C67.6607 2.68717 67.4834 2.26917 67.4834 1.77517C67.4834 1.26851 67.6607 0.850506 68.0154 0.521172C68.3827 0.179172 68.8514 0.00817174 69.4214 0.00817174C69.9787 0.00817174 70.4347 0.179172 70.7894 0.521172C71.1567 0.850506 71.3404 1.26851 71.3404 1.77517C71.3404 2.26917 71.1567 2.68717 70.7894 3.02917C70.4347 3.35851 69.9787 3.52317 69.4214 3.52317ZM71.0364 4.62517V15.2272H67.7874V4.62517H71.0364ZM77.7039 15.3792C76.7792 15.3792 75.9559 15.2208 75.2339 14.9042C74.5119 14.5875 73.9419 14.1568 73.5239 13.6122C73.1059 13.0548 72.8716 12.4342 72.8209 11.7502H76.0319C76.0699 12.1175 76.2409 12.4152 76.5449 12.6432C76.8489 12.8712 77.2226 12.9852 77.6659 12.9852C78.0712 12.9852 78.3816 12.9092 78.5969 12.7572C78.8249 12.5925 78.9389 12.3835 78.9389 12.1302C78.9389 11.8262 78.7806 11.6045 78.4639 11.4652C78.1472 11.3132 77.6342 11.1485 76.9249 10.9712C76.1649 10.7938 75.5316 10.6102 75.0249 10.4202C74.5182 10.2175 74.0812 9.90717 73.7139 9.48917C73.3466 9.05851 73.1629 8.48217 73.1629 7.76017C73.1629 7.15217 73.3276 6.60117 73.6569 6.10717C73.9989 5.60051 74.4929 5.20151 75.1389 4.91017C75.7976 4.61884 76.5766 4.47317 77.4759 4.47317C78.8059 4.47317 79.8509 4.80251 80.6109 5.46117C81.3836 6.11984 81.8269 6.99384 81.9409 8.08317H78.9389C78.8882 7.71584 78.7236 7.42451 78.4449 7.20917C78.1789 6.99384 77.8242 6.88617 77.3809 6.88617C77.0009 6.88617 76.7096 6.96217 76.5069 7.11417C76.3042 7.25351 76.2029 7.44984 76.2029 7.70317C76.2029 8.00717 76.3612 8.23517 76.6779 8.38717C77.0072 8.53917 77.5139 8.69117 78.1979 8.84317C78.9832 9.04584 79.6229 9.24851 80.1169 9.45117C80.6109 9.64117 81.0416 9.95784 81.4089 10.4012C81.7889 10.8318 81.9852 11.4145 81.9979 12.1492C81.9979 12.7698 81.8206 13.3272 81.4659 13.8212C81.1239 14.3025 80.6236 14.6825 79.9649 14.9612C79.3189 15.2398 78.5652 15.3792 77.7039 15.3792ZM93.9796 9.75517C93.9796 10.0592 93.9606 10.3758 93.9226 10.7052H86.5696C86.6203 11.3638 86.8293 11.8705 87.1966 12.2252C87.5766 12.5672 88.039 12.7382 88.5836 12.7382C89.3943 12.7382 89.958 12.3962 90.2746 11.7122H93.7326C93.5553 12.4088 93.2323 13.0358 92.7636 13.5932C92.3076 14.1505 91.7313 14.5875 91.0346 14.9042C90.338 15.2208 89.559 15.3792 88.6976 15.3792C87.659 15.3792 86.7343 15.1575 85.9236 14.7142C85.113 14.2708 84.4796 13.6375 84.0236 12.8142C83.5676 11.9908 83.3396 11.0282 83.3396 9.92617C83.3396 8.82417 83.5613 7.86151 84.0046 7.03817C84.4606 6.21484 85.094 5.58151 85.9046 5.13817C86.7153 4.69484 87.6463 4.47317 88.6976 4.47317C89.7236 4.47317 90.6356 4.68851 91.4336 5.11917C92.2316 5.54984 92.8523 6.16417 93.2956 6.96217C93.7516 7.76017 93.9796 8.69117 93.9796 9.75517ZM90.6546 8.90017C90.6546 8.34284 90.4646 7.89951 90.0846 7.57017C89.7046 7.24084 89.2296 7.07617 88.6596 7.07617C88.115 7.07617 87.6526 7.23451 87.2726 7.55117C86.9053 7.86784 86.6773 8.31751 86.5886 8.90017H90.6546ZM104.546 15.3602C103.571 15.3602 102.697 15.2018 101.924 14.8852C101.151 14.5685 100.531 14.0998 100.062 13.4792C99.606 12.8585 99.3653 12.1112 99.34 11.2372H102.798C102.849 11.7312 103.02 12.1112 103.311 12.3772C103.602 12.6305 103.982 12.7572 104.451 12.7572C104.932 12.7572 105.312 12.6495 105.591 12.4342C105.87 12.2062 106.009 11.8958 106.009 11.5032C106.009 11.1738 105.895 10.9015 105.667 10.6862C105.452 10.4708 105.179 10.2935 104.85 10.1542C104.533 10.0148 104.077 9.85651 103.482 9.67917C102.621 9.41317 101.918 9.14717 101.373 8.88117C100.828 8.61517 100.36 8.22251 99.967 7.70317C99.5743 7.18384 99.378 6.50617 99.378 5.67017C99.378 4.42884 99.8277 3.45984 100.727 2.76317C101.626 2.05384 102.798 1.69917 104.242 1.69917C105.711 1.69917 106.896 2.05384 107.795 2.76317C108.694 3.45984 109.176 4.43517 109.239 5.68917H105.724C105.699 5.25851 105.54 4.92284 105.249 4.68217C104.958 4.42884 104.584 4.30217 104.128 4.30217C103.735 4.30217 103.419 4.40984 103.178 4.62517C102.937 4.82784 102.817 5.12551 102.817 5.51817C102.817 5.94884 103.02 6.28451 103.425 6.52517C103.83 6.76584 104.464 7.02551 105.325 7.30417C106.186 7.59551 106.883 7.87417 107.415 8.14017C107.96 8.40617 108.428 8.79251 108.821 9.29917C109.214 9.80584 109.41 10.4582 109.41 11.2562C109.41 12.0162 109.214 12.7065 108.821 13.3272C108.441 13.9478 107.884 14.4418 107.149 14.8092C106.414 15.1765 105.547 15.3602 104.546 15.3602ZM124.937 4.51117C126.255 4.51117 127.3 4.91017 128.072 5.70817C128.858 6.50617 129.25 7.61451 129.25 9.03317V15.2272H126.02V9.47017C126.02 8.78617 125.837 8.26051 125.469 7.89317C125.115 7.51317 124.621 7.32317 123.987 7.32317C123.354 7.32317 122.854 7.51317 122.486 7.89317C122.132 8.26051 121.954 8.78617 121.954 9.47017V15.2272H118.724V9.47017C118.724 8.78617 118.541 8.26051 118.173 7.89317C117.819 7.51317 117.325 7.32317 116.691 7.32317C116.058 7.32317 115.558 7.51317 115.19 7.89317C114.836 8.26051 114.658 8.78617 114.658 9.47017V15.2272H111.409V4.62517H114.658V5.95517C114.988 5.51184 115.418 5.16351 115.95 4.91017C116.482 4.64417 117.084 4.51117 117.755 4.51117C118.553 4.51117 119.263 4.68217 119.883 5.02417C120.517 5.36617 121.011 5.85384 121.365 6.48717C121.733 5.90451 122.233 5.42951 122.866 5.06217C123.5 4.69484 124.19 4.51117 124.937 4.51117ZM130.877 9.90717C130.877 8.81784 131.079 7.86151 131.485 7.03817C131.903 6.21484 132.466 5.58151 133.176 5.13817C133.885 4.69484 134.677 4.47317 135.551 4.47317C136.298 4.47317 136.95 4.62517 137.508 4.92917C138.078 5.23317 138.515 5.63217 138.819 6.12617V4.62517H142.068V15.2272H138.819V13.7262C138.502 14.2202 138.059 14.6192 137.489 14.9232C136.931 15.2272 136.279 15.3792 135.532 15.3792C134.67 15.3792 133.885 15.1575 133.176 14.7142C132.466 14.2582 131.903 13.6185 131.485 12.7952C131.079 11.9592 130.877 10.9965 130.877 9.90717ZM138.819 9.92617C138.819 9.11551 138.591 8.47584 138.135 8.00717C137.691 7.53851 137.147 7.30417 136.501 7.30417C135.855 7.30417 135.304 7.53851 134.848 8.00717C134.404 8.46317 134.183 9.09651 134.183 9.90717C134.183 10.7178 134.404 11.3638 134.848 11.8452C135.304 12.3138 135.855 12.5482 136.501 12.5482C137.147 12.5482 137.691 12.3138 138.135 11.8452C138.591 11.3765 138.819 10.7368 138.819 9.92617ZM147.667 6.39217C148.047 5.80951 148.522 5.35351 149.092 5.02417C149.662 4.68217 150.296 4.51117 150.992 4.51117V7.95017H150.099C149.289 7.95017 148.681 8.12751 148.275 8.48217C147.87 8.82417 147.667 9.43217 147.667 10.3062V15.2272H144.418V4.62517H147.667V6.39217ZM158.454 12.4722V15.2272H156.801C155.623 15.2272 154.705 14.9422 154.046 14.3722C153.388 13.7895 153.058 12.8458 153.058 11.5412V7.32317H151.766V4.62517H153.058V2.04117H156.307V4.62517H158.435V7.32317H156.307V11.5792C156.307 11.8958 156.383 12.1238 156.535 12.2632C156.687 12.4025 156.941 12.4722 157.295 12.4722H158.454ZM7.34481 33.4722V36.2272H5.69181C4.51381 36.2272 3.59548 35.9422 2.93681 35.3722C2.27815 34.7895 1.94881 33.8458 1.94881 32.5412V28.3232H0.656813V25.6252H1.94881V23.0412H5.19781V25.6252H7.32581V28.3232H5.19781V32.5792C5.19781 32.8958 5.27381 33.1238 5.42581 33.2632C5.57781 33.4025 5.83115 33.4722 6.18581 33.4722H7.34481ZM15.6716 25.5112C16.8876 25.5112 17.8629 25.9165 18.5976 26.7272C19.3322 27.5252 19.6996 28.6272 19.6996 30.0332V36.2272H16.4696V30.4702C16.4696 29.7608 16.2859 29.2098 15.9186 28.8172C15.5512 28.4245 15.0572 28.2282 14.4366 28.2282C13.8159 28.2282 13.3219 28.4245 12.9546 28.8172C12.5872 29.2098 12.4036 29.7608 12.4036 30.4702V36.2272H9.15456V22.1672H12.4036V27.0502C12.7329 26.5815 13.1826 26.2078 13.7526 25.9292C14.3226 25.6505 14.9622 25.5112 15.6716 25.5112ZM23.5913 24.5232C23.0213 24.5232 22.5526 24.3585 22.1853 24.0292C21.8306 23.6872 21.6533 23.2692 21.6533 22.7752C21.6533 22.2685 21.8306 21.8505 22.1853 21.5212C22.5526 21.1792 23.0213 21.0082 23.5913 21.0082C24.1486 21.0082 24.6046 21.1792 24.9593 21.5212C25.3266 21.8505 25.5103 22.2685 25.5103 22.7752C25.5103 23.2692 25.3266 23.6872 24.9593 24.0292C24.6046 24.3585 24.1486 24.5232 23.5913 24.5232ZM25.2063 25.6252V36.2272H21.9573V25.6252H25.2063ZM31.8738 36.3792C30.9491 36.3792 30.1258 36.2208 29.4038 35.9042C28.6818 35.5875 28.1118 35.1568 27.6938 34.6122C27.2758 34.0548 27.0415 33.4342 26.9908 32.7502H30.2018C30.2398 33.1175 30.4108 33.4152 30.7148 33.6432C31.0188 33.8712 31.3925 33.9852 31.8358 33.9852C32.2411 33.9852 32.5515 33.9092 32.7668 33.7572C32.9948 33.5925 33.1088 33.3835 33.1088 33.1302C33.1088 32.8262 32.9505 32.6045 32.6338 32.4652C32.3171 32.3132 31.8041 32.1485 31.0948 31.9712C30.3348 31.7938 29.7015 31.6102 29.1948 31.4202C28.6881 31.2175 28.2511 30.9072 27.8838 30.4892C27.5165 30.0585 27.3328 29.4822 27.3328 28.7602C27.3328 28.1522 27.4975 27.6012 27.8268 27.1072C28.1688 26.6005 28.6628 26.2015 29.3088 25.9102C29.9675 25.6188 30.7465 25.4732 31.6458 25.4732C32.9758 25.4732 34.0208 25.8025 34.7808 26.4612C35.5535 27.1198 35.9968 27.9938 36.1108 29.0832H33.1088C33.0581 28.7158 32.8935 28.4245 32.6148 28.2092C32.3488 27.9938 31.9941 27.8862 31.5508 27.8862C31.1708 27.8862 30.8795 27.9622 30.6768 28.1142C30.4741 28.2535 30.3728 28.4498 30.3728 28.7032C30.3728 29.0072 30.5311 29.2352 30.8478 29.3872C31.1771 29.5392 31.6838 29.6912 32.3678 29.8432C33.1531 30.0458 33.7928 30.2485 34.2868 30.4512C34.7808 30.6412 35.2115 30.9578 35.5788 31.4012C35.9588 31.8318 36.1551 32.4145 36.1678 33.1492C36.1678 33.7698 35.9905 34.3272 35.6358 34.8212C35.2938 35.3025 34.7935 35.6825 34.1348 35.9612C33.4888 36.2398 32.7351 36.3792 31.8738 36.3792ZM47.0079 36.3602C46.0326 36.3602 45.1586 36.2018 44.3859 35.8852C43.6132 35.5685 42.9926 35.0998 42.5239 34.4792C42.0679 33.8585 41.8272 33.1112 41.8019 32.2372H45.2599C45.3106 32.7312 45.4816 33.1112 45.7729 33.3772C46.0642 33.6305 46.4442 33.7572 46.9129 33.7572C47.3942 33.7572 47.7742 33.6495 48.0529 33.4342C48.3316 33.2062 48.4709 32.8958 48.4709 32.5032C48.4709 32.1738 48.3569 31.9015 48.1289 31.6862C47.9136 31.4708 47.6412 31.2935 47.3119 31.1542C46.9952 31.0148 46.5392 30.8565 45.9439 30.6792C45.0826 30.4132 44.3796 30.1472 43.8349 29.8812C43.2902 29.6152 42.8216 29.2225 42.4289 28.7032C42.0362 28.1838 41.8399 27.5062 41.8399 26.6702C41.8399 25.4288 42.2896 24.4598 43.1889 23.7632C44.0882 23.0538 45.2599 22.6992 46.7039 22.6992C48.1732 22.6992 49.3576 23.0538 50.2569 23.7632C51.1562 24.4598 51.6376 25.4352 51.7009 26.6892H48.1859C48.1606 26.2585 48.0022 25.9228 47.7109 25.6822C47.4196 25.4288 47.0459 25.3022 46.5899 25.3022C46.1972 25.3022 45.8806 25.4098 45.6399 25.6252C45.3992 25.8278 45.2789 26.1255 45.2789 26.5182C45.2789 26.9488 45.4816 27.2845 45.8869 27.5252C46.2922 27.7658 46.9256 28.0255 47.7869 28.3042C48.6482 28.5955 49.3449 28.8742 49.8769 29.1402C50.4216 29.4062 50.8902 29.7925 51.2829 30.2992C51.6756 30.8058 51.8719 31.4582 51.8719 32.2562C51.8719 33.0162 51.6756 33.7065 51.2829 34.3272C50.9029 34.9478 50.3456 35.4418 49.6109 35.8092C48.8762 36.1765 48.0086 36.3602 47.0079 36.3602ZM63.8654 30.7552C63.8654 31.0592 63.8464 31.3758 63.8084 31.7052H56.4554C56.506 32.3638 56.715 32.8705 57.0824 33.2252C57.4624 33.5672 57.9247 33.7382 58.4694 33.7382C59.28 33.7382 59.8437 33.3962 60.1604 32.7122H63.6184C63.441 33.4088 63.118 34.0358 62.6494 34.5932C62.1934 35.1505 61.617 35.5875 60.9204 35.9042C60.2237 36.2208 59.4447 36.3792 58.5834 36.3792C57.5447 36.3792 56.62 36.1575 55.8094 35.7142C54.9987 35.2708 54.3654 34.6375 53.9094 33.8142C53.4534 32.9908 53.2254 32.0282 53.2254 30.9262C53.2254 29.8242 53.447 28.8615 53.8904 28.0382C54.3464 27.2148 54.9797 26.5815 55.7904 26.1382C56.601 25.6948 57.532 25.4732 58.5834 25.4732C59.6094 25.4732 60.5214 25.6885 61.3194 26.1192C62.1174 26.5498 62.738 27.1642 63.1814 27.9622C63.6374 28.7602 63.8654 29.6912 63.8654 30.7552ZM60.5404 29.9002C60.5404 29.3428 60.3504 28.8995 59.9704 28.5702C59.5904 28.2408 59.1154 28.0762 58.5454 28.0762C58.0007 28.0762 57.5384 28.2345 57.1584 28.5512C56.791 28.8678 56.563 29.3175 56.4744 29.9002H60.5404ZM64.9334 30.9072C64.9334 29.8178 65.136 28.8615 65.5414 28.0382C65.9594 27.2148 66.523 26.5815 67.2324 26.1382C67.9417 25.6948 68.7334 25.4732 69.6074 25.4732C70.3547 25.4732 71.007 25.6252 71.5644 25.9292C72.1344 26.2332 72.5714 26.6322 72.8754 27.1262V25.6252H76.1244V36.2272H72.8754V34.7262C72.5587 35.2202 72.1154 35.6192 71.5454 35.9232C70.988 36.2272 70.3357 36.3792 69.5884 36.3792C68.727 36.3792 67.9417 36.1575 67.2324 35.7142C66.523 35.2582 65.9594 34.6185 65.5414 33.7952C65.136 32.9592 64.9334 31.9965 64.9334 30.9072ZM72.8754 30.9262C72.8754 30.1155 72.6474 29.4758 72.1914 29.0072C71.748 28.5385 71.2034 28.3042 70.5574 28.3042C69.9114 28.3042 69.3604 28.5385 68.9044 29.0072C68.461 29.4632 68.2394 30.0965 68.2394 30.9072C68.2394 31.7178 68.461 32.3638 68.9044 32.8452C69.3604 33.3138 69.9114 33.5482 70.5574 33.5482C71.2034 33.5482 71.748 33.3138 72.1914 32.8452C72.6474 32.3765 72.8754 31.7368 72.8754 30.9262ZM82.7879 36.3792C81.8632 36.3792 81.0399 36.2208 80.3179 35.9042C79.5959 35.5875 79.0259 35.1568 78.6079 34.6122C78.1899 34.0548 77.9555 33.4342 77.9049 32.7502H81.1159C81.1539 33.1175 81.3249 33.4152 81.6289 33.6432C81.9329 33.8712 82.3065 33.9852 82.7499 33.9852C83.1552 33.9852 83.4655 33.9092 83.6809 33.7572C83.9089 33.5925 84.0229 33.3835 84.0229 33.1302C84.0229 32.8262 83.8645 32.6045 83.5479 32.4652C83.2312 32.3132 82.7182 32.1485 82.0089 31.9712C81.2489 31.7938 80.6155 31.6102 80.1089 31.4202C79.6022 31.2175 79.1652 30.9072 78.7979 30.4892C78.4305 30.0585 78.2469 29.4822 78.2469 28.7602C78.2469 28.1522 78.4115 27.6012 78.7409 27.1072C79.0829 26.6005 79.5769 26.2015 80.2229 25.9102C80.8815 25.6188 81.6605 25.4732 82.5599 25.4732C83.8899 25.4732 84.9349 25.8025 85.6949 26.4612C86.4675 27.1198 86.9109 27.9938 87.0249 29.0832H84.0229C83.9722 28.7158 83.8075 28.4245 83.5289 28.2092C83.2629 27.9938 82.9082 27.8862 82.4649 27.8862C82.0849 27.8862 81.7935 27.9622 81.5909 28.1142C81.3882 28.2535 81.2869 28.4498 81.2869 28.7032C81.2869 29.0072 81.4452 29.2352 81.7619 29.3872C82.0912 29.5392 82.5979 29.6912 83.2819 29.8432C84.0672 30.0458 84.7069 30.2485 85.2009 30.4512C85.6949 30.6412 86.1255 30.9578 86.4929 31.4012C86.8729 31.8318 87.0692 32.4145 87.0819 33.1492C87.0819 33.7698 86.9045 34.3272 86.5499 34.8212C86.2079 35.3025 85.7075 35.6825 85.0489 35.9612C84.4029 36.2398 83.6492 36.3792 82.7879 36.3792ZM93.8956 36.3792C92.8569 36.3792 91.9196 36.1575 91.0836 35.7142C90.2603 35.2708 89.6079 34.6375 89.1266 33.8142C88.6579 32.9908 88.4236 32.0282 88.4236 30.9262C88.4236 29.8368 88.6643 28.8805 89.1456 28.0572C89.6269 27.2212 90.2856 26.5815 91.1216 26.1382C91.9576 25.6948 92.8949 25.4732 93.9336 25.4732C94.9723 25.4732 95.9096 25.6948 96.7456 26.1382C97.5816 26.5815 98.2403 27.2212 98.7216 28.0572C99.2029 28.8805 99.4436 29.8368 99.4436 30.9262C99.4436 32.0155 99.1966 32.9782 98.7026 33.8142C98.2213 34.6375 97.5563 35.2708 96.7076 35.7142C95.8716 36.1575 94.9343 36.3792 93.8956 36.3792ZM93.8956 33.5672C94.5163 33.5672 95.0419 33.3392 95.4726 32.8832C95.9159 32.4272 96.1376 31.7748 96.1376 30.9262C96.1376 30.0775 95.9223 29.4252 95.4916 28.9692C95.0736 28.5132 94.5543 28.2852 93.9336 28.2852C93.3003 28.2852 92.7746 28.5132 92.3566 28.9692C91.9386 29.4125 91.7296 30.0648 91.7296 30.9262C91.7296 31.7748 91.9323 32.4272 92.3376 32.8832C92.7556 33.3392 93.2749 33.5672 93.8956 33.5672ZM107.627 25.5112C108.869 25.5112 109.857 25.9165 110.591 26.7272C111.339 27.5252 111.712 28.6272 111.712 30.0332V36.2272H108.482V30.4702C108.482 29.7608 108.299 29.2098 107.931 28.8172C107.564 28.4245 107.07 28.2282 106.449 28.2282C105.829 28.2282 105.335 28.4245 104.967 28.8172C104.6 29.2098 104.416 29.7608 104.416 30.4702V36.2272H101.167V25.6252H104.416V27.0312C104.746 26.5625 105.189 26.1952 105.746 25.9292C106.304 25.6505 106.931 25.5112 107.627 25.5112ZM118.245 22.4142L117.865 31.5152H115.11L114.73 22.4142H118.245ZM116.535 36.3792C115.965 36.3792 115.496 36.2145 115.129 35.8852C114.774 35.5432 114.597 35.1252 114.597 34.6312C114.597 34.1245 114.774 33.7002 115.129 33.3582C115.496 33.0162 115.965 32.8452 116.535 32.8452C117.092 32.8452 117.548 33.0162 117.903 33.3582C118.27 33.7002 118.454 34.1245 118.454 34.6312C118.454 35.1252 118.27 35.5432 117.903 35.8852C117.548 36.2145 117.092 36.3792 116.535 36.3792Z" fill="white"/>
</svg>
