<svg width="172" height="42" viewBox="0 0 172 42" fill="none" xmlns="http://www.w3.org/2000/svg">
<path d="M9.54106 12.7248H4.56306L3.76506 15.0808H0.364059L5.19006 1.74281H8.95206L13.7781 15.0808H10.3391L9.54106 12.7248ZM8.70506 10.2168L7.05206 5.33381L5.41806 10.2168H8.70506ZM21.7068 4.36481C22.9482 4.36481 23.9362 4.77014 24.6708 5.58081C25.4182 6.37881 25.7918 7.48081 25.7918 8.88681V15.0808H22.5618V9.32381C22.5618 8.61448 22.3782 8.06348 22.0108 7.67081C21.6435 7.27814 21.1495 7.08181 20.5288 7.08181C19.9082 7.08181 19.4142 7.27814 19.0468 7.67081C18.6795 8.06348 18.4958 8.61448 18.4958 9.32381V15.0808H15.2468V4.47881H18.4958V5.88481C18.8252 5.41614 19.2685 5.04881 19.8258 4.78281C20.3832 4.50414 21.0102 4.36481 21.7068 4.36481ZM27.4036 9.76081C27.4036 8.67148 27.6062 7.71514 28.0116 6.89181C28.4296 6.06848 28.9932 5.43514 29.7026 4.99181C30.4119 4.54848 31.2036 4.32681 32.0776 4.32681C32.7742 4.32681 33.4076 4.47248 33.9776 4.76381C34.5602 5.05514 35.0162 5.44781 35.3456 5.94181V1.02081H38.5946V15.0808H35.3456V13.5608C35.0416 14.0675 34.6046 14.4728 34.0346 14.7768C33.4772 15.0808 32.8249 15.2328 32.0776 15.2328C31.2036 15.2328 30.4119 15.0111 29.7026 14.5678C28.9932 14.1118 28.4296 13.4721 28.0116 12.6488C27.6062 11.8128 27.4036 10.8501 27.4036 9.76081ZM35.3456 9.77981C35.3456 8.96914 35.1176 8.32948 34.6616 7.86081C34.2182 7.39214 33.6736 7.15781 33.0276 7.15781C32.3816 7.15781 31.8306 7.39214 31.3746 7.86081C30.9312 8.31681 30.7096 8.95014 30.7096 9.76081C30.7096 10.5715 30.9312 11.2175 31.3746 11.6988C31.8306 12.1675 32.3816 12.4018 33.0276 12.4018C33.6736 12.4018 34.2182 12.1675 34.6616 11.6988C35.1176 11.2301 35.3456 10.5905 35.3456 9.77981ZM51.2795 15.2138C50.0255 15.2138 48.8728 14.9225 47.8215 14.3398C46.7828 13.7571 45.9531 12.9465 45.3325 11.9078C44.7245 10.8565 44.4205 9.67848 44.4205 8.37381C44.4205 7.06914 44.7245 5.89748 45.3325 4.85881C45.9531 3.82014 46.7828 3.00948 47.8215 2.42681C48.8728 1.84414 50.0255 1.55281 51.2795 1.55281C52.5335 1.55281 53.6798 1.84414 54.7185 2.42681C55.7698 3.00948 56.5931 3.82014 57.1885 4.85881C57.7965 5.89748 58.1005 7.06914 58.1005 8.37381C58.1005 9.67848 57.7965 10.8565 57.1885 11.9078C56.5805 12.9465 55.7571 13.7571 54.7185 14.3398C53.6798 14.9225 52.5335 15.2138 51.2795 15.2138ZM51.2795 12.2498C52.3435 12.2498 53.1921 11.8951 53.8255 11.1858C54.4715 10.4765 54.7945 9.53914 54.7945 8.37381C54.7945 7.19581 54.4715 6.25848 53.8255 5.56181C53.1921 4.85248 52.3435 4.49781 51.2795 4.49781C50.2028 4.49781 49.3415 4.84614 48.6955 5.54281C48.0621 6.23948 47.7455 7.18314 47.7455 8.37381C47.7455 9.55181 48.0621 10.4955 48.6955 11.2048C49.3415 11.9015 50.2028 12.2498 51.2795 12.2498ZM66.368 4.36481C67.6093 4.36481 68.5973 4.77014 69.332 5.58081C70.0793 6.37881 70.453 7.48081 70.453 8.88681V15.0808H67.223V9.32381C67.223 8.61448 67.0393 8.06348 66.672 7.67081C66.3046 7.27814 65.8106 7.08181 65.19 7.08181C64.5693 7.08181 64.0753 7.27814 63.708 7.67081C63.3406 8.06348 63.157 8.61448 63.157 9.32381V15.0808H59.908V4.47881H63.157V5.88481C63.4863 5.41614 63.9296 5.04881 64.487 4.78281C65.0443 4.50414 65.6713 4.36481 66.368 4.36481ZM83.2731 4.95381C83.1717 4.48514 82.9944 4.13681 82.7411 3.90881C82.4877 3.66814 82.1267 3.54781 81.6581 3.54781C80.9361 3.54781 80.4167 3.86448 80.1001 4.49781C79.7834 5.11848 79.6187 6.10648 79.6061 7.46181C79.8847 7.01848 80.2837 6.67014 80.8031 6.41681C81.3351 6.16348 81.9177 6.03681 82.5511 6.03681C83.7924 6.03681 84.7867 6.42948 85.5341 7.21481C86.2941 8.00014 86.6741 9.09581 86.6741 10.5018C86.6741 11.4265 86.4841 12.2371 86.1041 12.9338C85.7367 13.6305 85.1921 14.1751 84.4701 14.5678C83.7607 14.9605 82.9184 15.1568 81.9431 15.1568C79.9924 15.1568 78.6371 14.5488 77.8771 13.3328C77.1171 12.1041 76.7371 10.3435 76.7371 8.05081C76.7371 5.64414 77.1361 3.85814 77.9341 2.69281C78.7447 1.51481 80.0367 0.925809 81.8101 0.925809C82.7601 0.925809 83.5581 1.11581 84.2041 1.49581C84.8627 1.86314 85.3567 2.35081 85.6861 2.95881C86.0281 3.56681 86.2307 4.23181 86.2941 4.95381H83.2731ZM81.7721 8.60181C81.2274 8.60181 80.7714 8.76648 80.4041 9.09581C80.0494 9.41248 79.8721 9.86848 79.8721 10.4638C79.8721 11.0718 80.0367 11.5468 80.3661 11.8888C80.7081 12.2308 81.1894 12.4018 81.8101 12.4018C82.3674 12.4018 82.8044 12.2371 83.1211 11.9078C83.4504 11.5658 83.6151 11.1035 83.6151 10.5208C83.6151 9.92548 83.4567 9.45681 83.1401 9.11481C82.8234 8.77281 82.3674 8.60181 81.7721 8.60181ZM88.5117 7.95581C88.5117 5.77714 88.9297 4.06081 89.7657 2.80681C90.6144 1.55281 91.9761 0.925809 93.8507 0.925809C95.7254 0.925809 97.0807 1.55281 97.9167 2.80681C98.7654 4.06081 99.1897 5.77714 99.1897 7.95581C99.1897 10.1598 98.7654 11.8888 97.9167 13.1428C97.0807 14.3968 95.7254 15.0238 93.8507 15.0238C91.9761 15.0238 90.6144 14.3968 89.7657 13.1428C88.9297 11.8888 88.5117 10.1598 88.5117 7.95581ZM95.9977 7.95581C95.9977 6.67648 95.8584 5.69481 95.5797 5.01081C95.3011 4.31414 94.7247 3.96581 93.8507 3.96581C92.9767 3.96581 92.4004 4.31414 92.1217 5.01081C91.8431 5.69481 91.7037 6.67648 91.7037 7.95581C91.7037 8.81714 91.7544 9.53281 91.8557 10.1028C91.9571 10.6601 92.1597 11.1161 92.4637 11.4708C92.7804 11.8128 93.2427 11.9838 93.8507 11.9838C94.4587 11.9838 94.9147 11.8128 95.2187 11.4708C95.5354 11.1161 95.7444 10.6601 95.8457 10.1028C95.9471 9.53281 95.9977 8.81714 95.9977 7.95581ZM100.906 7.95581C100.906 5.77714 101.324 4.06081 102.16 2.80681C103.009 1.55281 104.371 0.925809 106.245 0.925809C108.12 0.925809 109.475 1.55281 110.311 2.80681C111.16 4.06081 111.584 5.77714 111.584 7.95581C111.584 10.1598 111.16 11.8888 110.311 13.1428C109.475 14.3968 108.12 15.0238 106.245 15.0238C104.371 15.0238 103.009 14.3968 102.16 13.1428C101.324 11.8888 100.906 10.1598 100.906 7.95581ZM108.392 7.95581C108.392 6.67648 108.253 5.69481 107.974 5.01081C107.696 4.31414 107.119 3.96581 106.245 3.96581C105.371 3.96581 104.795 4.31414 104.516 5.01081C104.238 5.69481 104.098 6.67648 104.098 7.95581C104.098 8.81714 104.149 9.53281 104.25 10.1028C104.352 10.6601 104.554 11.1161 104.858 11.4708C105.175 11.8128 105.637 11.9838 106.245 11.9838C106.853 11.9838 107.309 11.8128 107.613 11.4708C107.93 11.1161 108.139 10.6601 108.24 10.1028C108.342 9.53281 108.392 8.81714 108.392 7.95581ZM123.958 15.2138C122.704 15.2138 121.552 14.9225 120.5 14.3398C119.462 13.7571 118.632 12.9465 118.011 11.9078C117.403 10.8565 117.099 9.67848 117.099 8.37381C117.099 7.06914 117.403 5.89748 118.011 4.85881C118.632 3.82014 119.462 3.00948 120.5 2.42681C121.552 1.84414 122.704 1.55281 123.958 1.55281C125.212 1.55281 126.359 1.84414 127.397 2.42681C128.449 3.00948 129.272 3.82014 129.867 4.85881C130.475 5.89748 130.779 7.06914 130.779 8.37381C130.779 9.67848 130.475 10.8565 129.867 11.9078C129.259 12.9465 128.436 13.7571 127.397 14.3398C126.359 14.9225 125.212 15.2138 123.958 15.2138ZM123.958 12.2498C125.022 12.2498 125.871 11.8951 126.504 11.1858C127.15 10.4765 127.473 9.53914 127.473 8.37381C127.473 7.19581 127.15 6.25848 126.504 5.56181C125.871 4.85248 125.022 4.49781 123.958 4.49781C122.882 4.49781 122.02 4.84614 121.374 5.54281C120.741 6.23948 120.424 7.18314 120.424 8.37381C120.424 9.55181 120.741 10.4955 121.374 11.2048C122.02 11.9015 122.882 12.2498 123.958 12.2498ZM138.496 12.3258V15.0808H136.843C135.665 15.0808 134.746 14.7958 134.088 14.2258C133.429 13.6431 133.1 12.6995 133.1 11.3948V7.17681H131.808V4.47881H133.1V1.89481H136.349V4.47881H138.477V7.17681H136.349V11.4328C136.349 11.7495 136.425 11.9775 136.577 12.1168C136.729 12.2561 136.982 12.3258 137.337 12.3258H138.496ZM146.822 4.36481C148.038 4.36481 149.014 4.77014 149.748 5.58081C150.483 6.37881 150.85 7.48081 150.85 8.88681V15.0808H147.62V9.32381C147.62 8.61448 147.437 8.06348 147.069 7.67081C146.702 7.27814 146.208 7.08181 145.587 7.08181C144.967 7.08181 144.473 7.27814 144.105 7.67081C143.738 8.06348 143.554 8.61448 143.554 9.32381V15.0808H140.305V1.02081H143.554V5.90381C143.884 5.43514 144.333 5.06148 144.903 4.78281C145.473 4.50414 146.113 4.36481 146.822 4.36481ZM163.102 9.60881C163.102 9.91281 163.083 10.2295 163.045 10.5588H155.692C155.743 11.2175 155.952 11.7241 156.319 12.0788C156.699 12.4208 157.162 12.5918 157.706 12.5918C158.517 12.5918 159.081 12.2498 159.397 11.5658H162.855C162.678 12.2625 162.355 12.8895 161.886 13.4468C161.43 14.0041 160.854 14.4411 160.157 14.7578C159.461 15.0745 158.682 15.2328 157.82 15.2328C156.782 15.2328 155.857 15.0111 155.046 14.5678C154.236 14.1245 153.602 13.4911 153.146 12.6678C152.69 11.8445 152.462 10.8818 152.462 9.77981C152.462 8.67781 152.684 7.71514 153.127 6.89181C153.583 6.06848 154.217 5.43514 155.027 4.99181C155.838 4.54848 156.769 4.32681 157.82 4.32681C158.846 4.32681 159.758 4.54214 160.556 4.97281C161.354 5.40348 161.975 6.01781 162.418 6.81581C162.874 7.61381 163.102 8.54481 163.102 9.60881ZM159.777 8.75381C159.777 8.19648 159.587 7.75314 159.207 7.42381C158.827 7.09448 158.352 6.92981 157.782 6.92981C157.238 6.92981 156.775 7.08814 156.395 7.40481C156.028 7.72148 155.8 8.17114 155.711 8.75381H159.777ZM168.065 6.24581C168.445 5.66314 168.92 5.20714 169.49 4.87781C170.06 4.53581 170.694 4.36481 171.39 4.36481V7.80381H170.497C169.687 7.80381 169.079 7.98114 168.673 8.33581C168.268 8.67781 168.065 9.28581 168.065 10.1598V15.0808H164.816V4.47881H168.065V6.24581ZM0.687059 29.3928C0.687059 28.0755 0.972059 26.9038 1.54206 25.8778C2.11206 24.8391 2.90373 24.0348 3.91706 23.4648C4.94306 22.8821 6.10206 22.5908 7.39406 22.5908C8.97739 22.5908 10.3327 23.0088 11.4601 23.8448C12.5874 24.6808 13.3411 25.8208 13.7211 27.2648H10.1491C9.88306 26.7075 9.50306 26.2831 9.00906 25.9918C8.52773 25.7005 7.97673 25.5548 7.35606 25.5548C6.35539 25.5548 5.54473 25.9031 4.92406 26.5998C4.30339 27.2965 3.99306 28.2275 3.99306 29.3928C3.99306 30.5581 4.30339 31.4891 4.92406 32.1858C5.54473 32.8825 6.35539 33.2308 7.35606 33.2308C7.97673 33.2308 8.52773 33.0851 9.00906 32.7938C9.50306 32.5025 9.88306 32.0781 10.1491 31.5208H13.7211C13.3411 32.9648 12.5874 34.1048 11.4601 34.9408C10.3327 35.7641 8.97739 36.1758 7.39406 36.1758C6.10206 36.1758 4.94306 35.8908 3.91706 35.3208C2.90373 34.7381 2.11206 33.9338 1.54206 32.9078C0.972059 31.8818 0.687059 30.7101 0.687059 29.3928ZM18.9597 27.2458C19.3397 26.6631 19.8147 26.2071 20.3847 25.8778C20.9547 25.5358 21.588 25.3648 22.2847 25.3648V28.8038H21.3917C20.581 28.8038 19.973 28.9811 19.5677 29.3358C19.1624 29.6778 18.9597 30.2858 18.9597 31.1598V36.0808H15.7107V25.4788H18.9597V27.2458ZM34.6677 25.4788L28.0177 41.1158H24.5217L26.9537 35.7198L22.6407 25.4788H26.2697L28.7207 32.1098L31.1527 25.4788H34.6677ZM39.0916 26.9798C39.4082 26.4858 39.8452 26.0868 40.4026 25.7828C40.9599 25.4788 41.6122 25.3268 42.3596 25.3268C43.2336 25.3268 44.0252 25.5485 44.7346 25.9918C45.4439 26.4351 46.0012 27.0685 46.4066 27.8918C46.8246 28.7151 47.0336 29.6715 47.0336 30.7608C47.0336 31.8501 46.8246 32.8128 46.4066 33.6488C46.0012 34.4721 45.4439 35.1118 44.7346 35.5678C44.0252 36.0111 43.2336 36.2328 42.3596 36.2328C41.6249 36.2328 40.9726 36.0808 40.4026 35.7768C39.8452 35.4728 39.4082 35.0801 39.0916 34.5988V41.1348H35.8426V25.4788H39.0916V26.9798ZM43.7276 30.7608C43.7276 29.9501 43.4996 29.3168 43.0436 28.8608C42.6002 28.3921 42.0492 28.1578 41.3906 28.1578C40.7446 28.1578 40.1936 28.3921 39.7376 28.8608C39.2942 29.3295 39.0726 29.9691 39.0726 30.7798C39.0726 31.5905 39.2942 32.2301 39.7376 32.6988C40.1936 33.1675 40.7446 33.4018 41.3906 33.4018C42.0366 33.4018 42.5876 33.1675 43.0436 32.6988C43.4996 32.2175 43.7276 31.5715 43.7276 30.7608ZM54.6471 33.3258V36.0808H52.9941C51.8161 36.0808 50.8977 35.7958 50.2391 35.2258C49.5804 34.6431 49.2511 33.6995 49.2511 32.3948V28.1768H47.9591V25.4788H49.2511V22.8948H52.5001V25.4788H54.6281V28.1768H52.5001V32.4328C52.5001 32.7495 52.5761 32.9775 52.7281 33.1168C52.8801 33.2561 53.1334 33.3258 53.4881 33.3258H54.6471ZM61.2828 36.2328C60.2441 36.2328 59.3068 36.0111 58.4708 35.5678C57.6475 35.1245 56.9951 34.4911 56.5138 33.6678C56.0451 32.8445 55.8108 31.8818 55.8108 30.7798C55.8108 29.6905 56.0515 28.7341 56.5328 27.9108C57.0141 27.0748 57.6728 26.4351 58.5088 25.9918C59.3448 25.5485 60.2821 25.3268 61.3208 25.3268C62.3595 25.3268 63.2968 25.5485 64.1328 25.9918C64.9688 26.4351 65.6275 27.0748 66.1088 27.9108C66.5901 28.7341 66.8308 29.6905 66.8308 30.7798C66.8308 31.8691 66.5838 32.8318 66.0898 33.6678C65.6085 34.4911 64.9435 35.1245 64.0948 35.5678C63.2588 36.0111 62.3215 36.2328 61.2828 36.2328ZM61.2828 33.4208C61.9035 33.4208 62.4291 33.1928 62.8598 32.7368C63.3031 32.2808 63.5248 31.6285 63.5248 30.7798C63.5248 29.9311 63.3095 29.2788 62.8788 28.8228C62.4608 28.3668 61.9415 28.1388 61.3208 28.1388C60.6875 28.1388 60.1618 28.3668 59.7438 28.8228C59.3258 29.2661 59.1168 29.9185 59.1168 30.7798C59.1168 31.6285 59.3195 32.2808 59.7248 32.7368C60.1428 33.1928 60.6621 33.4208 61.2828 33.4208ZM90.9348 22.7428L87.4578 36.0808H83.5248L81.3968 27.3028L79.1928 36.0808H75.2598L71.8778 22.7428H75.3548L77.2738 32.4518L79.6488 22.7428H83.2208L85.5008 32.4518L87.4388 22.7428H90.9348ZM102.558 30.6088C102.558 30.9128 102.539 31.2295 102.501 31.5588H95.1482C95.1989 32.2175 95.4079 32.7241 95.7752 33.0788C96.1552 33.4208 96.6176 33.5918 97.1622 33.5918C97.9729 33.5918 98.5366 33.2498 98.8532 32.5658H102.311C102.134 33.2625 101.811 33.8895 101.342 34.4468C100.886 35.0041 100.31 35.4411 99.6132 35.7578C98.9166 36.0745 98.1376 36.2328 97.2762 36.2328C96.2376 36.2328 95.3129 36.0111 94.5022 35.5678C93.6916 35.1245 93.0582 34.4911 92.6022 33.6678C92.1462 32.8445 91.9182 31.8818 91.9182 30.7798C91.9182 29.6778 92.1399 28.7151 92.5832 27.8918C93.0392 27.0685 93.6726 26.4351 94.4832 25.9918C95.2939 25.5485 96.2249 25.3268 97.2762 25.3268C98.3022 25.3268 99.2142 25.5421 100.012 25.9728C100.81 26.4035 101.431 27.0178 101.874 27.8158C102.33 28.6138 102.558 29.5448 102.558 30.6088ZM99.2332 29.7538C99.2332 29.1965 99.0432 28.7531 98.6632 28.4238C98.2832 28.0945 97.8082 27.9298 97.2382 27.9298C96.6936 27.9298 96.2312 28.0881 95.8512 28.4048C95.4839 28.7215 95.2559 29.1711 95.1672 29.7538H99.2332ZM107.521 26.9798C107.825 26.4858 108.262 26.0868 108.832 25.7828C109.402 25.4788 110.055 25.3268 110.789 25.3268C111.663 25.3268 112.455 25.5485 113.164 25.9918C113.874 26.4351 114.431 27.0685 114.836 27.8918C115.254 28.7151 115.463 29.6715 115.463 30.7608C115.463 31.8501 115.254 32.8128 114.836 33.6488C114.431 34.4721 113.874 35.1118 113.164 35.5678C112.455 36.0111 111.663 36.2328 110.789 36.2328C110.042 36.2328 109.39 36.0871 108.832 35.7958C108.275 35.4918 107.838 35.0928 107.521 34.5988V36.0808H104.272V22.0208H107.521V26.9798ZM112.157 30.7608C112.157 29.9501 111.929 29.3168 111.473 28.8608C111.03 28.3921 110.479 28.1578 109.82 28.1578C109.174 28.1578 108.623 28.3921 108.167 28.8608C107.724 29.3295 107.502 29.9691 107.502 30.7798C107.502 31.5905 107.724 32.2301 108.167 32.6988C108.623 33.1675 109.174 33.4018 109.82 33.4018C110.466 33.4018 111.017 33.1675 111.473 32.6988C111.929 32.2175 112.157 31.5715 112.157 30.7608ZM121.481 36.2328C120.556 36.2328 119.733 36.0745 119.011 35.7578C118.289 35.4411 117.719 35.0105 117.301 34.4658C116.883 33.9085 116.648 33.2878 116.598 32.6038H119.809C119.847 32.9711 120.018 33.2688 120.322 33.4968C120.626 33.7248 120.999 33.8388 121.443 33.8388C121.848 33.8388 122.158 33.7628 122.374 33.6108C122.602 33.4461 122.716 33.2371 122.716 32.9838C122.716 32.6798 122.557 32.4581 122.241 32.3188C121.924 32.1668 121.411 32.0021 120.702 31.8248C119.942 31.6475 119.308 31.4638 118.802 31.2738C118.295 31.0711 117.858 30.7608 117.491 30.3428C117.123 29.9121 116.94 29.3358 116.94 28.6138C116.94 28.0058 117.104 27.4548 117.434 26.9608C117.776 26.4541 118.27 26.0551 118.916 25.7638C119.574 25.4725 120.353 25.3268 121.253 25.3268C122.583 25.3268 123.628 25.6561 124.388 26.3148C125.16 26.9735 125.604 27.8475 125.718 28.9368H122.716C122.665 28.5695 122.5 28.2781 122.222 28.0628C121.956 27.8475 121.601 27.7398 121.158 27.7398C120.778 27.7398 120.486 27.8158 120.284 27.9678C120.081 28.1071 119.98 28.3035 119.98 28.5568C119.98 28.8608 120.138 29.0888 120.455 29.2408C120.784 29.3928 121.291 29.5448 121.975 29.6968C122.76 29.8995 123.4 30.1021 123.894 30.3048C124.388 30.4948 124.818 30.8115 125.186 31.2548C125.566 31.6855 125.762 32.2681 125.775 33.0028C125.775 33.6235 125.597 34.1808 125.243 34.6748C124.901 35.1561 124.4 35.5361 123.742 35.8148C123.096 36.0935 122.342 36.2328 121.481 36.2328ZM129.396 24.3768C128.826 24.3768 128.358 24.2121 127.99 23.8828C127.636 23.5408 127.458 23.1228 127.458 22.6288C127.458 22.1221 127.636 21.7041 127.99 21.3748C128.358 21.0328 128.826 20.8618 129.396 20.8618C129.954 20.8618 130.41 21.0328 130.764 21.3748C131.132 21.7041 131.315 22.1221 131.315 22.6288C131.315 23.1228 131.132 23.5408 130.764 23.8828C130.41 24.2121 129.954 24.3768 129.396 24.3768ZM131.011 25.4788V36.0808H127.762V25.4788H131.011ZM139.275 33.3258V36.0808H137.622C136.444 36.0808 135.526 35.7958 134.867 35.2258C134.208 34.6431 133.879 33.6995 133.879 32.3948V28.1768H132.587V25.4788H133.879V22.8948H137.128V25.4788H139.256V28.1768H137.128V32.4328C137.128 32.7495 137.204 32.9775 137.356 33.1168C137.508 33.2561 137.761 33.3258 138.116 33.3258H139.275ZM151.079 30.6088C151.079 30.9128 151.06 31.2295 151.022 31.5588H143.669C143.719 32.2175 143.928 32.7241 144.296 33.0788C144.676 33.4208 145.138 33.5918 145.683 33.5918C146.493 33.5918 147.057 33.2498 147.374 32.5658H150.832C150.654 33.2625 150.331 33.8895 149.863 34.4468C149.407 35.0041 148.83 35.4411 148.134 35.7578C147.437 36.0745 146.658 36.2328 145.797 36.2328C144.758 36.2328 143.833 36.0111 143.023 35.5678C142.212 35.1245 141.579 34.4911 141.123 33.6678C140.667 32.8445 140.439 31.8818 140.439 30.7798C140.439 29.6778 140.66 28.7151 141.104 27.8918C141.56 27.0685 142.193 26.4351 143.004 25.9918C143.814 25.5485 144.745 25.3268 145.797 25.3268C146.823 25.3268 147.735 25.5421 148.533 25.9728C149.331 26.4035 149.951 27.0178 150.395 27.8158C150.851 28.6138 151.079 29.5448 151.079 30.6088ZM147.754 29.7538C147.754 29.1965 147.564 28.7531 147.184 28.4238C146.804 28.0945 146.329 27.9298 145.759 27.9298C145.214 27.9298 144.752 28.0881 144.372 28.4048C144.004 28.7215 143.776 29.1711 143.688 29.7538H147.754ZM157.106 36.2328C156.181 36.2328 155.358 36.0745 154.636 35.7578C153.914 35.4411 153.344 35.0105 152.926 34.4658C152.508 33.9085 152.273 33.2878 152.223 32.6038H155.434C155.472 32.9711 155.643 33.2688 155.947 33.4968C156.251 33.7248 156.624 33.8388 157.068 33.8388C157.473 33.8388 157.783 33.7628 157.999 33.6108C158.227 33.4461 158.341 33.2371 158.341 32.9838C158.341 32.6798 158.182 32.4581 157.866 32.3188C157.549 32.1668 157.036 32.0021 156.327 31.8248C155.567 31.6475 154.933 31.4638 154.427 31.2738C153.92 31.0711 153.483 30.7608 153.116 30.3428C152.748 29.9121 152.565 29.3358 152.565 28.6138C152.565 28.0058 152.729 27.4548 153.059 26.9608C153.401 26.4541 153.895 26.0551 154.541 25.7638C155.199 25.4725 155.978 25.3268 156.878 25.3268C158.208 25.3268 159.253 25.6561 160.013 26.3148C160.785 26.9735 161.229 27.8475 161.343 28.9368H158.341C158.29 28.5695 158.125 28.2781 157.847 28.0628C157.581 27.8475 157.226 27.7398 156.783 27.7398C156.403 27.7398 156.111 27.8158 155.909 27.9678C155.706 28.1071 155.605 28.3035 155.605 28.5568C155.605 28.8608 155.763 29.0888 156.08 29.2408C156.409 29.3928 156.916 29.5448 157.6 29.6968C158.385 29.8995 159.025 30.1021 159.519 30.3048C160.013 30.4948 160.443 30.8115 160.811 31.2548C161.191 31.6855 161.387 32.2681 161.4 33.0028C161.4 33.6235 161.222 34.1808 160.868 34.6748C160.526 35.1561 160.025 35.5361 159.367 35.8148C158.721 36.0935 157.967 36.2328 157.106 36.2328Z" fill="white"/>
</svg>
