<svg width="173" height="41" viewBox="0 0 173 41" fill="none" xmlns="http://www.w3.org/2000/svg">
<path d="M9.11939 16.4119L5.90739 10.5819H5.00539V16.4119H1.24339V0.967865H7.55739C8.77473 0.967865 9.80873 1.18053 10.6594 1.60586C11.5247 2.0312 12.1701 2.61786 12.5954 3.36586C13.0207 4.0992 13.2334 4.92053 13.2334 5.82986C13.2334 6.85653 12.9401 7.7732 12.3534 8.57987C11.7814 9.38653 10.9307 9.95853 9.8014 10.2959L13.3654 16.4119H9.11939ZM5.00539 7.91987H7.33739C8.02673 7.91987 8.54006 7.7512 8.87739 7.41387C9.2294 7.07653 9.4054 6.59986 9.4054 5.98386C9.4054 5.3972 9.2294 4.9352 8.87739 4.59787C8.54006 4.26053 8.02673 4.09187 7.33739 4.09187H5.00539V7.91987ZM27.167 10.0759C27.167 10.4279 27.145 10.7945 27.101 11.1759H18.587C18.6456 11.9385 18.8876 12.5252 19.313 12.9359C19.753 13.3319 20.2883 13.5299 20.919 13.5299C21.8576 13.5299 22.5103 13.1339 22.877 12.3419H26.881C26.6756 13.1485 26.3016 13.8745 25.759 14.5199C25.231 15.1652 24.5636 15.6712 23.757 16.0379C22.9503 16.4045 22.0483 16.5879 21.051 16.5879C19.8483 16.5879 18.7776 16.3312 17.839 15.8179C16.9003 15.3045 16.167 14.5712 15.639 13.6179C15.111 12.6645 14.847 11.5499 14.847 10.2739C14.847 8.99786 15.1036 7.8832 15.617 6.92986C16.145 5.97653 16.8783 5.2432 17.817 4.72986C18.7556 4.21653 19.8336 3.95986 21.051 3.95986C22.239 3.95986 23.295 4.2092 24.219 4.70787C25.143 5.20653 25.8616 5.91786 26.375 6.84186C26.903 7.76586 27.167 8.84386 27.167 10.0759ZM23.317 9.08587C23.317 8.44053 23.097 7.9272 22.657 7.54586C22.217 7.16453 21.667 6.97386 21.007 6.97386C20.3763 6.97386 19.841 7.1572 19.401 7.52386C18.9756 7.89053 18.7116 8.4112 18.609 9.08587H23.317ZM28.4036 10.2519C28.4036 8.99053 28.6383 7.8832 29.1076 6.92986C29.5916 5.97653 30.2443 5.2432 31.0656 4.72986C31.8869 4.21653 32.8036 3.95986 33.8156 3.95986C34.6809 3.95986 35.4363 4.13586 36.0816 4.48786C36.7416 4.83986 37.2476 5.30186 37.5996 5.87386V4.13586H41.3616V16.4119H37.5996V14.6739C37.2329 15.2459 36.7196 15.7079 36.0596 16.0599C35.4143 16.4119 34.6589 16.5879 33.7936 16.5879C32.7963 16.5879 31.8869 16.3312 31.0656 15.8179C30.2443 15.2899 29.5916 14.5492 29.1076 13.5959C28.6383 12.6279 28.4036 11.5132 28.4036 10.2519ZM37.5996 10.2739C37.5996 9.3352 37.3356 8.59453 36.8076 8.05186C36.2943 7.5092 35.6636 7.23786 34.9156 7.23786C34.1676 7.23786 33.5296 7.5092 33.0016 8.05186C32.4883 8.57986 32.2316 9.3132 32.2316 10.2519C32.2316 11.1905 32.4883 11.9385 33.0016 12.4959C33.5296 13.0385 34.1676 13.3099 34.9156 13.3099C35.6636 13.3099 36.2943 13.0385 36.8076 12.4959C37.3356 11.9532 37.5996 11.2125 37.5996 10.2739ZM43.3352 10.2739C43.3352 8.99786 43.5919 7.8832 44.1052 6.92986C44.6332 5.97653 45.3592 5.2432 46.2832 4.72986C47.2219 4.21653 48.2926 3.95986 49.4952 3.95986C51.0352 3.95986 52.3186 4.3632 53.3452 5.16986C54.3866 5.97653 55.0686 7.1132 55.3912 8.57987H51.3872C51.0499 7.6412 50.3972 7.17186 49.4292 7.17186C48.7399 7.17186 48.1899 7.4432 47.7792 7.98586C47.3686 8.51387 47.1632 9.27653 47.1632 10.2739C47.1632 11.2712 47.3686 12.0412 47.7792 12.5839C48.1899 13.1119 48.7399 13.3759 49.4292 13.3759C50.3972 13.3759 51.0499 12.9065 51.3872 11.9679H55.3912C55.0686 13.4052 54.3866 14.5345 53.3452 15.3559C52.3039 16.1772 51.0206 16.5879 49.4952 16.5879C48.2926 16.5879 47.2219 16.3312 46.2832 15.8179C45.3592 15.3045 44.6332 14.5712 44.1052 13.6179C43.5919 12.6645 43.3352 11.5499 43.3352 10.2739ZM64.9496 4.00387C66.3576 4.00387 67.4869 4.4732 68.3376 5.41187C69.1882 6.33587 69.6136 7.61187 69.6136 9.23987V16.4119H65.8736V9.74587C65.8736 8.92453 65.6609 8.28653 65.2356 7.83186C64.8102 7.3772 64.2382 7.14986 63.5196 7.14986C62.8009 7.14986 62.2289 7.3772 61.8036 7.83186C61.3782 8.28653 61.1656 8.92453 61.1656 9.74587V16.4119H57.4036V0.131865H61.1656V5.78587C61.5469 5.2432 62.0676 4.81053 62.7276 4.48786C63.3876 4.1652 64.1282 4.00387 64.9496 4.00387ZM76.2758 12.9359L73.8338 19.2499H71.4358L72.7118 12.9359H76.2758ZM86.9683 3.98187V7.10587H92.0063V10.0099H86.9683V13.3979H92.6663V16.4119H83.2063V0.967865H92.6663V3.98187H86.9683ZM102.589 4.00387C104.026 4.00387 105.17 4.4732 106.021 5.41187C106.886 6.33587 107.319 7.61187 107.319 9.23987V16.4119H103.579V9.74587C103.579 8.92453 103.366 8.28653 102.941 7.83186C102.515 7.3772 101.943 7.14986 101.225 7.14986C100.506 7.14986 99.934 7.3772 99.5086 7.83186C99.0833 8.28653 98.8706 8.92453 98.8706 9.74587V16.4119H95.1086V4.13586H98.8706V5.76386C99.252 5.2212 99.7653 4.79586 100.411 4.48786C101.056 4.1652 101.782 4.00387 102.589 4.00387ZM114.597 3.95986C115.462 3.95986 116.218 4.13586 116.863 4.48786C117.523 4.83986 118.029 5.30186 118.381 5.87386V4.13586H122.143V16.3899C122.143 17.5192 121.916 18.5385 121.461 19.4479C121.021 20.3719 120.339 21.1052 119.415 21.6479C118.506 22.1905 117.369 22.4619 116.005 22.4619C114.186 22.4619 112.712 22.0292 111.583 21.1639C110.454 20.3132 109.808 19.1545 109.647 17.6879H113.365C113.482 18.1572 113.761 18.5239 114.201 18.7879C114.641 19.0665 115.184 19.2059 115.829 19.2059C116.606 19.2059 117.222 18.9785 117.677 18.5239C118.146 18.0839 118.381 17.3725 118.381 16.3899V14.6519C118.014 15.2239 117.508 15.6932 116.863 16.0599C116.218 16.4119 115.462 16.5879 114.597 16.5879C113.585 16.5879 112.668 16.3312 111.847 15.8179C111.026 15.2899 110.373 14.5492 109.889 13.5959C109.42 12.6279 109.185 11.5132 109.185 10.2519C109.185 8.99053 109.42 7.8832 109.889 6.92986C110.373 5.97653 111.026 5.2432 111.847 4.72986C112.668 4.21653 113.585 3.95986 114.597 3.95986ZM118.381 10.2739C118.381 9.3352 118.117 8.59453 117.589 8.05186C117.076 7.5092 116.445 7.23786 115.697 7.23786C114.949 7.23786 114.311 7.5092 113.783 8.05186C113.27 8.57986 113.013 9.3132 113.013 10.2519C113.013 11.1905 113.27 11.9385 113.783 12.4959C114.311 13.0385 114.949 13.3099 115.697 13.3099C116.445 13.3099 117.076 13.0385 117.589 12.4959C118.117 11.9532 118.381 11.2125 118.381 10.2739ZM124.116 10.2519C124.116 8.99053 124.351 7.8832 124.82 6.92986C125.304 5.97653 125.957 5.2432 126.778 4.72986C127.6 4.21653 128.516 3.95986 129.528 3.95986C130.394 3.95986 131.149 4.13586 131.794 4.48786C132.454 4.83986 132.96 5.30186 133.312 5.87386V4.13586H137.074V16.4119H133.312V14.6739C132.946 15.2459 132.432 15.7079 131.772 16.0599C131.127 16.4119 130.372 16.5879 129.506 16.5879C128.509 16.5879 127.6 16.3312 126.778 15.8179C125.957 15.2899 125.304 14.5492 124.82 13.5959C124.351 12.6279 124.116 11.5132 124.116 10.2519ZM133.312 10.2739C133.312 9.3352 133.048 8.59453 132.52 8.05186C132.007 7.5092 131.376 7.23786 130.628 7.23786C129.88 7.23786 129.242 7.5092 128.714 8.05186C128.201 8.57986 127.944 9.3132 127.944 10.2519C127.944 11.1905 128.201 11.9385 128.714 12.4959C129.242 13.0385 129.88 13.3099 130.628 13.3099C131.376 13.3099 132.007 13.0385 132.52 12.4959C133.048 11.9532 133.312 11.2125 133.312 10.2739ZM144.46 3.95986C145.325 3.95986 146.081 4.13586 146.726 4.48786C147.386 4.83986 147.892 5.30186 148.244 5.87386V4.13586H152.006V16.3899C152.006 17.5192 151.779 18.5385 151.324 19.4479C150.884 20.3719 150.202 21.1052 149.278 21.6479C148.369 22.1905 147.232 22.4619 145.868 22.4619C144.049 22.4619 142.575 22.0292 141.446 21.1639C140.317 20.3132 139.671 19.1545 139.51 17.6879H143.228C143.345 18.1572 143.624 18.5239 144.064 18.7879C144.504 19.0665 145.047 19.2059 145.692 19.2059C146.469 19.2059 147.085 18.9785 147.54 18.5239C148.009 18.0839 148.244 17.3725 148.244 16.3899V14.6519C147.877 15.2239 147.371 15.6932 146.726 16.0599C146.081 16.4119 145.325 16.5879 144.46 16.5879C143.448 16.5879 142.531 16.3312 141.71 15.8179C140.889 15.2899 140.236 14.5492 139.752 13.5959C139.283 12.6279 139.048 11.5132 139.048 10.2519C139.048 8.99053 139.283 7.8832 139.752 6.92986C140.236 5.97653 140.889 5.2432 141.71 4.72986C142.531 4.21653 143.448 3.95986 144.46 3.95986ZM148.244 10.2739C148.244 9.3352 147.98 8.59453 147.452 8.05186C146.939 7.5092 146.308 7.23786 145.56 7.23786C144.812 7.23786 144.174 7.5092 143.646 8.05186C143.133 8.57986 142.876 9.3132 142.876 10.2519C142.876 11.1905 143.133 11.9385 143.646 12.4959C144.174 13.0385 144.812 13.3099 145.56 13.3099C146.308 13.3099 146.939 13.0385 147.452 12.4959C147.98 11.9532 148.244 11.2125 148.244 10.2739ZM166.3 10.0759C166.3 10.4279 166.278 10.7945 166.234 11.1759H157.72C157.778 11.9385 158.02 12.5252 158.446 12.9359C158.886 13.3319 159.421 13.5299 160.052 13.5299C160.99 13.5299 161.643 13.1339 162.01 12.3419H166.014C165.808 13.1485 165.434 13.8745 164.892 14.5199C164.364 15.1652 163.696 15.6712 162.89 16.0379C162.083 16.4045 161.181 16.5879 160.184 16.5879C158.981 16.5879 157.91 16.3312 156.972 15.8179C156.033 15.3045 155.3 14.5712 154.772 13.6179C154.244 12.6645 153.98 11.5499 153.98 10.2739C153.98 8.99786 154.236 7.8832 154.75 6.92986C155.278 5.97653 156.011 5.2432 156.95 4.72986C157.888 4.21653 158.966 3.95986 160.184 3.95986C161.372 3.95986 162.428 4.2092 163.352 4.70787C164.276 5.20653 164.994 5.91786 165.508 6.84186C166.036 7.76586 166.3 8.84386 166.3 10.0759ZM162.45 9.08587C162.45 8.44053 162.23 7.9272 161.79 7.54586C161.35 7.16453 160.8 6.97386 160.14 6.97386C159.509 6.97386 158.974 7.1572 158.534 7.52386C158.108 7.89053 157.844 8.4112 157.742 9.08587H162.45ZM172.332 12.9359L169.89 19.2499H167.492L168.768 12.9359H172.332ZM0.605395 32.6679C0.605395 31.1425 0.935395 29.7859 1.59539 28.5979C2.25539 27.3952 3.17206 26.4639 4.34539 25.8039C5.53339 25.1292 6.87539 24.7919 8.37139 24.7919C10.2047 24.7919 11.7741 25.2759 13.0794 26.2439C14.3847 27.2119 15.2574 28.5319 15.6974 30.2039H11.5614C11.2534 29.5585 10.8134 29.0672 10.2414 28.7299C9.68406 28.3925 9.04606 28.2239 8.32739 28.2239C7.16873 28.2239 6.23006 28.6272 5.51139 29.4339C4.79273 30.2405 4.43339 31.3185 4.43339 32.6679C4.43339 34.0172 4.79273 35.0952 5.51139 35.9019C6.23006 36.7085 7.16873 37.1119 8.32739 37.1119C9.04606 37.1119 9.68406 36.9432 10.2414 36.6059C10.8134 36.2685 11.2534 35.7772 11.5614 35.1319H15.6974C15.2574 36.8039 14.3847 38.1239 13.0794 39.0919C11.7741 40.0452 10.2047 40.5219 8.37139 40.5219C6.87539 40.5219 5.53339 40.1919 4.34539 39.5319C3.17206 38.8572 2.25539 37.9259 1.59539 36.7379C0.935395 35.5499 0.605395 34.1932 0.605395 32.6679ZM23.5892 40.5879C22.3865 40.5879 21.3012 40.3312 20.3332 39.8179C19.3799 39.3045 18.6245 38.5712 18.0672 37.6179C17.5245 36.6645 17.2532 35.5499 17.2532 34.2739C17.2532 33.0125 17.5319 31.9052 18.0892 30.9519C18.6465 29.9839 19.4092 29.2432 20.3772 28.7299C21.3452 28.2165 22.4305 27.9599 23.6332 27.9599C24.8359 27.9599 25.9212 28.2165 26.8892 28.7299C27.8572 29.2432 28.6199 29.9839 29.1772 30.9519C29.7345 31.9052 30.0132 33.0125 30.0132 34.2739C30.0132 35.5352 29.7272 36.6499 29.1552 37.6179C28.5979 38.5712 27.8279 39.3045 26.8452 39.8179C25.8772 40.3312 24.7919 40.5879 23.5892 40.5879ZM23.5892 37.3319C24.3079 37.3319 24.9165 37.0679 25.4152 36.5399C25.9285 36.0119 26.1852 35.2565 26.1852 34.2739C26.1852 33.2912 25.9359 32.5359 25.4372 32.0079C24.9532 31.4799 24.3519 31.2159 23.6332 31.2159C22.8999 31.2159 22.2912 31.4799 21.8072 32.0079C21.3232 32.5212 21.0812 33.2765 21.0812 34.2739C21.0812 35.2565 21.3159 36.0119 21.7852 36.5399C22.2692 37.0679 22.8705 37.3319 23.5892 37.3319ZM39.489 28.0039C40.9264 28.0039 42.0704 28.4732 42.921 29.4119C43.7864 30.3359 44.219 31.6119 44.219 33.2399V40.4119H40.479V33.7459C40.479 32.9245 40.2664 32.2865 39.841 31.8319C39.4157 31.3772 38.8437 31.1499 38.125 31.1499C37.4064 31.1499 36.8344 31.3772 36.409 31.8319C35.9837 32.2865 35.771 32.9245 35.771 33.7459V40.4119H32.009V28.1359H35.771V29.7639C36.1524 29.2212 36.6657 28.7959 37.311 28.4879C37.9564 28.1652 38.6824 28.0039 39.489 28.0039ZM52.3552 36.8919L55.0172 28.1359H59.0212L54.6652 40.4119H50.0232L45.6672 28.1359H49.6932L52.3552 36.8919ZM72.1767 34.0759C72.1767 34.4279 72.1547 34.7945 72.1107 35.1759H63.5967C63.6554 35.9385 63.8974 36.5252 64.3227 36.9359C64.7627 37.3319 65.2981 37.5299 65.9287 37.5299C66.8674 37.5299 67.5201 37.1339 67.8867 36.3419H71.8907C71.6854 37.1485 71.3114 37.8745 70.7687 38.5199C70.2407 39.1652 69.5734 39.6712 68.7667 40.0379C67.9601 40.4045 67.0581 40.5879 66.0607 40.5879C64.8581 40.5879 63.7874 40.3312 62.8487 39.8179C61.9101 39.3045 61.1767 38.5712 60.6487 37.6179C60.1207 36.6645 59.8567 35.5499 59.8567 34.2739C59.8567 32.9979 60.1134 31.8832 60.6267 30.9299C61.1547 29.9765 61.8881 29.2432 62.8267 28.7299C63.7654 28.2165 64.8434 27.9599 66.0607 27.9599C67.2487 27.9599 68.3047 28.2092 69.2287 28.7079C70.1527 29.2065 70.8714 29.9179 71.3847 30.8419C71.9127 31.7659 72.1767 32.8439 72.1767 34.0759ZM68.3267 33.0859C68.3267 32.4405 68.1067 31.9272 67.6667 31.5459C67.2267 31.1645 66.6767 30.9739 66.0167 30.9739C65.3861 30.9739 64.8507 31.1572 64.4107 31.5239C63.9854 31.8905 63.7214 32.4112 63.6187 33.0859H68.3267ZM77.9234 30.1819C78.3634 29.5072 78.9134 28.9792 79.5734 28.5979C80.2334 28.2019 80.9667 28.0039 81.7734 28.0039V31.9859H80.7394C79.8007 31.9859 79.0967 32.1912 78.6274 32.6019C78.158 32.9979 77.9234 33.7019 77.9234 34.7139V40.4119H74.1614V28.1359H77.9234V30.1819ZM90.4135 37.2219V40.4119H88.4995C87.1355 40.4119 86.0722 40.0819 85.3095 39.4219C84.5469 38.7472 84.1655 37.6545 84.1655 36.1439V31.2599H82.6695V28.1359H84.1655V25.1439H87.9275V28.1359H90.3915V31.2599H87.9275V36.1879C87.9275 36.5545 88.0155 36.8185 88.1915 36.9799C88.3675 37.1412 88.6609 37.2219 89.0715 37.2219H90.4135Z" fill="white"/>
</svg>
