<svg width="90" height="21" viewBox="0 0 90 21" fill="none" xmlns="http://www.w3.org/2000/svg">
<g clip-path="url(#clip0_149_18955)">
<path fill-rule="evenodd" clip-rule="evenodd" d="M34.6198 8.87103L34.6336 8.93467C34.6427 8.96649 34.6701 8.99376 34.7067 8.99376H36.33C36.33 8.99376 36.3391 8.99376 36.3437 8.99376C36.3848 8.98467 36.4123 8.94831 36.4031 8.9074L36.394 8.8574C35.9825 6.72103 34.5192 5.15285 31.9815 5.15285C28.9499 5.15285 27.4364 7.39831 27.4364 10.1665C27.4364 12.9347 28.9499 15.1801 31.9815 15.1801C34.5147 15.1801 35.9779 13.6165 36.3894 11.4847L36.3986 11.421C36.3986 11.421 36.3986 11.4119 36.3986 11.4074C36.3986 11.3665 36.3665 11.3301 36.3208 11.3301H34.6976C34.661 11.3301 34.6336 11.3529 34.6244 11.3847L34.6061 11.4529C34.2723 12.7074 33.4081 13.5892 32.0089 13.5892C30.1662 13.5892 29.2425 12.0529 29.2425 10.1574C29.2425 8.26194 30.1616 6.72558 32.0089 6.72558C33.4081 6.72558 34.2723 7.61194 34.6061 8.86649L34.6198 8.87103ZM73.6739 14.9347V9.47558H76.0379V14.9347C76.0379 14.971 76.0654 14.9983 76.102 14.9983H77.6155C77.6521 14.9983 77.6795 14.971 77.6795 14.9347V9.47558H78.8821C78.9186 9.47558 78.9461 9.44831 78.9461 9.41194V8.12558C78.9461 8.08922 78.9186 8.06194 78.8821 8.06194H77.6795V7.56649C77.6795 6.96649 77.9767 6.68921 78.6443 6.68921H78.8775C78.9141 6.68921 78.9415 6.66194 78.9415 6.62558V5.21194C78.9415 5.17558 78.9141 5.14831 78.8775 5.14831H78.6306C76.9113 5.14831 76.0379 5.93921 76.0379 7.49831V8.06194H73.6739V7.56649C73.6739 6.96649 73.9712 6.68921 74.6387 6.68921H74.8719C74.9085 6.68921 74.936 6.66194 74.936 6.62558V5.21194C74.936 5.17558 74.9085 5.14831 74.8719 5.14831H74.625C72.9057 5.14831 72.0324 5.93921 72.0324 7.49831V8.06194H71.0127C70.9761 8.06194 70.9487 8.08922 70.9487 8.12558V9.41194C70.9487 9.44831 70.9761 9.47558 71.0127 9.47558H72.0324V14.9347C72.0324 14.971 72.0598 14.9983 72.0964 14.9983H73.6099C73.6465 14.9983 73.6739 14.971 73.6739 14.9347ZM43.3077 14.1619C43.9433 13.4847 44.2633 12.6029 44.2633 11.521C44.2633 10.4392 43.9478 9.57558 43.3077 8.9074C42.6812 8.22558 41.8307 7.88467 40.7608 7.88467C39.6908 7.88467 38.8403 8.22558 38.2001 8.9074C37.5737 9.57558 37.2582 10.4483 37.2582 11.521C37.2582 12.5938 37.5737 13.4801 38.2001 14.1574C38.8494 14.8301 39.6954 15.1665 40.7653 15.1665C41.8353 15.1665 42.6812 14.8301 43.3122 14.1574L43.3077 14.1619ZM42.6218 11.521C42.6218 10.1983 41.9085 9.29831 40.7608 9.29831C39.6131 9.29831 38.8997 10.1983 38.8997 11.521C38.8997 12.8438 39.6131 13.7574 40.7608 13.7574C41.9085 13.7574 42.6218 12.8574 42.6218 11.521ZM45.9872 7.07103C46.5222 7.07103 46.952 6.63922 46.952 6.1074C46.952 5.57558 46.5222 5.14376 45.9872 5.14376C45.4522 5.14376 45.0224 5.57558 45.0224 6.1074C45.0224 6.63922 45.4522 7.07103 45.9872 7.07103ZM45.2281 8.0574H46.7417C46.7782 8.0574 46.8057 8.08467 46.8057 8.12103V14.9301C46.8057 14.9665 46.7782 14.9938 46.7417 14.9938H45.2281C45.1916 14.9938 45.1641 14.9665 45.1641 14.9301V8.12103C45.1641 8.08467 45.1916 8.0574 45.2281 8.0574ZM54.2955 10.6756C54.2955 8.92103 53.381 7.88467 51.8035 7.88467C51.0719 7.88467 50.2122 8.16649 49.7732 8.6074V8.12103C49.7732 8.08467 49.7458 8.0574 49.7092 8.0574H48.1866C48.15 8.0574 48.1226 8.08467 48.1226 8.12103V14.9301C48.1226 14.9665 48.15 14.9938 48.1866 14.9938H49.7092C49.7458 14.9938 49.7732 14.9665 49.7732 14.9301V11.2938C49.7732 10.7483 49.9196 10.2983 50.2259 9.93012C50.5414 9.56649 50.9438 9.36649 51.3325 9.36649C52.2333 9.36649 52.6494 9.88012 52.6494 10.9756V14.9347C52.6494 14.971 52.6768 14.9983 52.7134 14.9983H54.2269C54.2635 14.9983 54.2909 14.971 54.2909 14.9347V10.6801L54.2955 10.6756ZM55.8639 6.13922C55.8639 6.10285 55.8913 6.07558 55.9279 6.07558H57.4414C57.478 6.07558 57.5054 6.10285 57.5054 6.13922V8.05285H58.7903C58.8269 8.05285 58.8543 8.08012 58.8543 8.11649V9.40285C58.8543 9.43922 58.8269 9.46649 58.7903 9.46649H57.5054V12.721C57.5054 13.2847 57.8209 13.5529 58.4839 13.5529H58.7903C58.8269 13.5529 58.8543 13.5801 58.8543 13.6165V14.9256C58.8543 14.9619 58.8269 14.9892 58.7903 14.9892H58.4611C56.7098 14.9892 55.8685 14.3619 55.8685 12.9165V9.46194H54.8488C54.8122 9.46194 54.7848 9.43467 54.7848 9.39831V8.11194C54.7848 8.07558 54.8122 8.04831 54.8488 8.04831H55.8685V6.13467L55.8639 6.13922ZM63.7835 8.12103C63.7835 8.08922 63.7607 8.06194 63.7287 8.0574C62.8141 7.93921 62.0139 8.18012 61.5658 8.9074V8.12103C61.5658 8.08467 61.5384 8.0574 61.5018 8.0574H60.0432C60.0066 8.0574 59.9792 8.08467 59.9792 8.12103V14.9301C59.9792 14.9665 60.0066 14.9938 60.0432 14.9938H61.5018C61.5384 14.9938 61.5658 14.9665 61.5658 14.9301V11.6165C61.5658 10.2165 62.4346 9.38921 63.7149 9.58921C63.7515 9.59376 63.7881 9.56649 63.7881 9.52558V8.12103H63.7835ZM68.667 10.3801C68.667 9.61194 68.2097 9.19831 67.2998 9.19831C66.4905 9.19831 66.0607 9.47103 65.9966 10.0119C65.9966 10.0438 65.9646 10.0665 65.9326 10.0665H64.4328C64.3962 10.0665 64.3642 10.0347 64.3688 9.99831C64.4374 8.70285 65.576 7.87558 67.2449 7.87558C69.1608 7.87558 70.2537 8.7574 70.2537 10.4029V14.9256C70.2537 14.9619 70.2262 14.9892 70.1897 14.9892H68.7859C68.7493 14.9892 68.7219 14.9619 68.7219 14.9256V14.4665C68.2692 14.9074 67.3913 15.1665 66.4585 15.1665C65.6948 15.1665 65.0913 14.9483 64.634 14.5074C64.1813 14.0529 63.9573 13.5165 63.9573 12.871C63.9573 12.2256 64.1905 11.6892 64.6432 11.221C65.0958 10.7529 65.7954 10.521 66.7237 10.521H68.667V10.3847V10.3801ZM65.6125 12.7756C65.6125 12.171 66.1475 11.8438 66.9934 11.8438H68.667V12.171C68.667 12.621 68.4978 13.0074 68.164 13.3301C67.8302 13.6483 67.4187 13.8074 66.9249 13.8074C66.0881 13.8074 65.6125 13.4301 65.6125 12.7756ZM81.8131 6.1074C81.8131 6.63922 81.3832 7.07103 80.8483 7.07103C80.3133 7.07103 79.8835 6.63922 79.8835 6.1074C79.8835 5.57558 80.3178 5.14376 80.8483 5.14376C81.3787 5.14376 81.8131 5.57558 81.8131 6.1074ZM81.6027 8.0574H80.0892C80.0526 8.0574 80.0252 8.08467 80.0252 8.12103V14.9301C80.0252 14.9665 80.0526 14.9938 80.0892 14.9938H81.6027C81.6393 14.9938 81.6667 14.9665 81.6667 14.9301V8.12103C81.6667 8.08467 81.6393 8.0574 81.6027 8.0574ZM88.4798 8.89376C88.9051 9.3574 89.184 9.92558 89.312 10.5938C89.3212 10.6347 89.2892 10.671 89.248 10.671H87.7071C87.6796 10.671 87.6522 10.6529 87.6431 10.6256C87.419 9.78922 86.8474 9.31194 85.9878 9.29831C84.8492 9.31649 84.2228 10.1529 84.2228 11.5074C84.2228 12.8619 84.8492 13.7347 85.9878 13.7574C86.8109 13.7438 87.3641 13.3029 87.611 12.521C87.6202 12.4938 87.6431 12.4756 87.6705 12.4756H89.2252C89.2663 12.4756 89.2983 12.5119 89.2892 12.5529C89.152 13.1847 88.8822 13.721 88.4798 14.1619C87.8854 14.8074 87.0623 15.1529 86.0472 15.171C86.0472 15.171 86.0427 15.171 86.0381 15.171H85.9466H85.9375C84.9224 15.1483 84.0993 14.8074 83.5049 14.1619C82.8968 13.4983 82.5904 12.6165 82.5904 11.5256C82.5904 10.4347 82.8968 9.56194 83.5049 8.90285C84.0993 8.2574 84.9224 7.91649 85.9375 7.89376H85.9466H86.0381C86.0381 7.89376 86.0381 7.89376 86.0427 7.89376C86.0427 7.89376 86.0427 7.89376 86.0472 7.89376C87.0623 7.91649 87.8854 8.2574 88.4798 8.90285V8.89376Z" fill="white"/>
<path d="M18.273 0.157394H3.9655C1.94522 0.157394 0.307465 1.78545 0.307465 3.79376V16.521C0.307465 18.5293 1.94522 20.1574 3.9655 20.1574H18.273C20.2933 20.1574 21.931 18.5293 21.931 16.521V3.79376C21.931 1.78545 20.2933 0.157394 18.273 0.157394Z" fill="white"/>
<path fill-rule="evenodd" clip-rule="evenodd" d="M11.1947 2.65739C9.56686 2.65739 7.93903 2.71194 6.3112 2.81649C4.99431 2.90285 3.94263 3.95285 3.85575 5.27103C3.75058 6.8983 3.69571 8.52558 3.69571 10.1528C3.69571 11.7801 3.75058 13.4074 3.85575 15.0347C3.94263 16.3528 4.99431 17.4028 6.3112 17.4892C7.93903 17.5938 9.56686 17.6483 11.1947 17.6483C12.8225 17.6483 14.4503 17.5938 16.0782 17.4892C17.3951 17.4028 18.4467 16.3528 18.5336 15.0347C18.6388 13.4074 18.6937 11.7801 18.6937 10.1528C18.6937 8.52558 18.6388 6.8983 18.5336 5.27103C18.4467 3.95285 17.3951 2.90285 16.0782 2.81649C14.4503 2.71194 12.8225 2.65739 11.1947 2.65739ZM12.914 8.98921L12.8271 8.79376C12.8134 8.76194 12.7951 8.73012 12.7814 8.69376C12.475 8.09376 11.972 7.77103 11.2724 7.77103C10.6871 7.77103 10.2436 7.99376 9.93266 8.41649C9.6263 8.83467 9.45712 9.43921 9.45712 10.1392C9.45712 10.8392 9.6263 11.4438 9.93266 11.8619C10.2436 12.2847 10.6871 12.5074 11.2724 12.5074C11.9766 12.5074 12.4841 12.1801 12.7859 11.571C12.8042 11.5347 12.8225 11.4983 12.8362 11.4574L12.9231 11.2619C12.9368 11.2256 12.9734 11.2028 13.0146 11.2028H15.1545C15.2094 11.2028 15.2505 11.2438 15.2505 11.2983C15.2505 11.3074 15.2505 11.3165 15.2505 11.3256L15.1316 11.7392C15.1179 11.7892 15.1042 11.8392 15.0859 11.8892C14.5372 13.6028 13.1654 14.6438 11.245 14.6438C8.67978 14.6438 7.13426 12.7892 7.13426 10.1392C7.13426 7.48921 8.67978 5.63467 11.245 5.63467C13.1609 5.63467 14.5281 6.66649 15.0813 8.37103C15.0951 8.41194 15.1088 8.45285 15.1179 8.49376L15.2414 8.91194C15.2551 8.96194 15.2277 9.02103 15.1728 9.03467C15.1636 9.03467 15.1545 9.03467 15.1454 9.03467L13.0008 9.04376C12.9643 9.04376 12.9277 9.02103 12.9094 8.98467L12.914 8.98921Z" fill="#EF793D"/>
</g>
<defs>
<clipPath id="clip0_149_18955">
<rect width="89" height="20" fill="white" transform="translate(0.307465 0.157394)"/>
</clipPath>
</defs>
</svg>
