<svg width="196" height="46" viewBox="0 0 196 46" fill="none" xmlns="http://www.w3.org/2000/svg">
<path fill-rule="evenodd" clip-rule="evenodd" d="M180.324 45.1206L168.178 29.1663V45.1206H155.742V1.39088H168.178V17.2217L180.205 1.39088H195.07L178.107 22.8446L195.654 45.1206H180.324ZM176.605 22.8432L192.636 2.56958H180.79L166.999 20.7215V2.56958H156.921V43.9419H166.999V25.6721L180.908 43.9419H193.225L176.605 22.8432Z" fill="url(#paint0_linear_151_19519)"/>
<path fill-rule="evenodd" clip-rule="evenodd" d="M150.406 30.9762C149.144 34.9013 146.92 38.0445 143.736 40.4058C140.239 42.9596 136.035 44.2366 131.124 44.2366C127.117 44.2366 123.522 43.3525 120.339 41.5845C117.196 39.7772 114.74 37.2822 112.972 34.0998C111.204 30.9173 110.32 27.283 110.32 23.1968C110.32 19.1106 111.204 15.4763 112.972 12.2938C114.74 9.07207 117.196 6.57716 120.339 4.80911C123.522 3.00177 127.117 2.0981 131.124 2.0981C136.035 2.0981 140.239 3.39467 143.736 5.9878C146.92 8.34911 149.144 11.4923 150.406 15.4174C150.529 15.8028 150.644 16.1957 150.75 16.5961H139.67C138.845 14.8673 137.666 13.5511 136.134 12.6475C134.641 11.7438 132.932 11.2919 131.006 11.2919C127.902 11.2919 125.388 12.3724 123.463 14.5334C121.537 16.6943 120.575 19.5821 120.575 23.1968C120.575 26.8115 121.537 29.6993 123.463 31.8602C125.388 34.0212 127.902 35.1017 131.006 35.1017C132.932 35.1017 134.641 34.6498 136.134 33.7462C137.666 32.8425 138.845 31.5263 139.67 29.7975H150.75C150.644 30.198 150.529 30.5908 150.406 30.9762ZM119.759 3.78297C123.135 1.86627 126.933 0.919403 131.124 0.919403C136.254 0.919403 140.713 2.27827 144.438 5.04103C148.165 7.80437 150.647 11.5758 151.889 16.2961L152.279 17.7748H138.926L138.606 17.1038C137.874 15.5697 136.849 14.438 135.535 13.6627L135.523 13.6559C134.233 12.8749 132.739 12.4706 131.006 12.4706C128.211 12.4706 126.027 13.4274 124.343 15.3174C122.654 17.2125 121.754 19.7965 121.754 23.1968C121.754 26.5971 122.654 29.1811 124.343 31.0762C126.027 32.9663 128.211 33.923 131.006 33.923C132.739 33.923 134.233 33.5187 135.523 32.7378L135.535 32.7308C136.849 31.9556 137.874 30.8239 138.606 29.2898L138.926 28.6188H152.279L151.889 30.0975C150.647 34.8178 148.165 38.5892 144.438 41.3526L144.431 41.3577C140.706 44.0783 136.25 45.4153 131.124 45.4153C126.937 45.4153 123.141 44.4898 119.767 42.6149L119.759 42.6106L119.752 42.6063C116.422 40.6917 113.813 38.0411 111.942 34.6722C110.065 31.294 109.141 27.4583 109.141 23.1968C109.141 18.9366 110.065 15.102 111.94 11.7245C113.811 8.31551 116.422 5.66058 119.759 3.78297Z" fill="url(#paint1_linear_151_19519)"/>
<path fill-rule="evenodd" clip-rule="evenodd" d="M96.8061 43.9419L94.3308 36.634H78.8899L76.4146 43.9419H65.8653L80.8347 2.56958H92.5039L107.473 43.9419H96.8061ZM79.7351 37.8127L77.2599 45.1206H64.1853L80.0077 1.39088H93.3309L109.153 45.1206H95.9609L93.4856 37.8127H79.7351ZM86.6104 13.7083L81.542 28.8546H91.7377L86.6104 13.7083ZM86.6168 17.4034L83.1793 27.6759H90.0943L86.6168 17.4034Z" fill="url(#paint2_linear_151_19519)"/>
<path fill-rule="evenodd" clip-rule="evenodd" d="M64.9481 34.9838V45.1206H39.3114V1.39088H51.7467V34.9838H64.9481ZM50.568 36.1625V2.56958H40.4901V43.9419H63.7694V36.1625H50.568Z" fill="url(#paint3_linear_151_19519)"/>
<path fill-rule="evenodd" clip-rule="evenodd" d="M31.7484 41.8393L31.747 41.8405C29.0695 44.0791 25.4061 45.1206 20.9131 45.1206H0.462715V1.39088H20.2648C24.636 1.39088 28.2139 2.39119 30.8491 4.54167C33.5444 6.70855 34.8807 9.6701 34.8807 13.2957C34.8807 15.9474 34.1711 18.2433 32.6808 20.0983C31.8881 21.1123 30.945 21.9493 29.8607 22.6113C31.2283 23.3248 32.4101 24.3206 33.3942 25.5959C35.0126 27.6537 35.8237 30.0318 35.8237 32.6853C35.8237 36.4567 34.4769 39.551 31.7484 41.8393ZM32.4644 26.3204C31.4077 24.9495 30.1019 23.942 28.547 23.2977C27.9627 23.0556 27.3433 22.8648 26.6888 22.7253C27.3329 22.5345 27.9373 22.2983 28.5018 22.0169C29.7965 21.3714 30.8816 20.4878 31.7572 19.366C33.0537 17.7551 33.702 15.7317 33.702 13.2957C33.702 9.99538 32.5037 7.3826 30.107 5.45739C27.7496 3.53218 24.4689 2.56958 20.2648 2.56958H1.64141V43.9419H20.9131C25.235 43.9419 28.5943 42.94 30.991 40.9362C33.427 38.8931 34.645 36.1428 34.645 32.6853C34.645 30.2886 33.9181 28.167 32.4644 26.3204ZM21.3312 12.6639L21.3214 12.6555C20.749 12.1612 19.8108 11.8224 18.32 11.8224H12.898V18.1284H18.32C19.8218 18.1284 20.7695 17.8042 21.3433 17.3357C21.9184 16.8596 22.2686 16.1464 22.2686 15.0048C22.2686 13.8618 21.9175 13.1483 21.3411 12.6722L21.3312 12.6639ZM11.7193 19.3071V10.6437H18.32C19.9702 10.6437 21.2275 11.0169 22.0918 11.7634C22.9955 12.5099 23.4473 13.5904 23.4473 15.0048C23.4473 16.4193 22.9955 17.4998 22.0918 18.2463C21.2275 18.9535 19.9702 19.3071 18.32 19.3071H11.7193ZM22.2086 28.8065L22.1997 28.7987C21.5367 28.2185 20.5315 27.8527 19.0272 27.8527H12.898V34.6302H19.1451C20.677 34.6302 21.6655 34.2903 22.2821 33.782C22.9047 33.2622 23.2705 32.504 23.2705 31.3298C23.2705 30.1723 22.8959 29.3838 22.2177 28.8141L22.2086 28.8065ZM23.0348 34.6891C22.1311 35.4356 20.8346 35.8089 19.1451 35.8089H11.7193V26.674H19.0272C20.7167 26.674 22.0329 27.0865 22.9759 27.9116C23.9581 28.7367 24.4492 29.8761 24.4492 31.3298C24.4492 32.7835 23.9777 33.9033 23.0348 34.6891Z" fill="url(#paint4_linear_151_19519)"/>
<defs>
<linearGradient id="paint0_linear_151_19519" x1="96.1739" y1="-21.0581" x2="96.1739" y2="32.9152" gradientUnits="userSpaceOnUse">
<stop stop-color="#FFD71F"/>
<stop offset="1" stop-color="#E95F14"/>
</linearGradient>
<linearGradient id="paint1_linear_151_19519" x1="96.1739" y1="-21.0581" x2="96.1739" y2="32.9152" gradientUnits="userSpaceOnUse">
<stop stop-color="#FFD71F"/>
<stop offset="1" stop-color="#E95F14"/>
</linearGradient>
<linearGradient id="paint2_linear_151_19519" x1="96.1739" y1="-21.0581" x2="96.1739" y2="32.9152" gradientUnits="userSpaceOnUse">
<stop stop-color="#FFD71F"/>
<stop offset="1" stop-color="#E95F14"/>
</linearGradient>
<linearGradient id="paint3_linear_151_19519" x1="96.1739" y1="-21.0581" x2="96.1739" y2="32.9152" gradientUnits="userSpaceOnUse">
<stop stop-color="#FFD71F"/>
<stop offset="1" stop-color="#E95F14"/>
</linearGradient>
<linearGradient id="paint4_linear_151_19519" x1="96.1739" y1="-21.0581" x2="96.1739" y2="32.9152" gradientUnits="userSpaceOnUse">
<stop stop-color="#FFD71F"/>
<stop offset="1" stop-color="#E95F14"/>
</linearGradient>
</defs>
</svg>
