<svg width="198" height="40" viewBox="0 0 198 40" fill="none" xmlns="http://www.w3.org/2000/svg">
<path d="M25.698 0.420209V8.00985H9.85398V16.2089H21.7093V23.5769H9.85398V39.3102H0.380779V0.420209H25.698ZM50.5098 39.3102L42.4216 24.6295H40.1502V39.3102H30.677V0.420209H46.5765C49.6419 0.420209 52.2456 0.95573 54.3877 2.02677C56.5667 3.09782 58.1918 4.57512 59.2628 6.45868C60.3338 8.30531 60.8694 10.3735 60.8694 12.6633C60.8694 15.2486 60.1307 17.5569 58.6534 19.5882C57.213 21.6195 55.071 23.0599 52.2271 23.9093L61.2018 39.3102H50.5098ZM40.1502 17.9262H46.0225C47.7583 17.9262 49.0509 17.5015 49.9004 16.6521C50.7868 15.8026 51.23 14.6023 51.23 13.0511C51.23 11.5738 50.7868 10.4105 49.9004 9.56101C49.0509 8.71157 47.7583 8.28684 46.0225 8.28684H40.1502V17.9262ZM76.2893 0.420209V39.3102H66.8161V0.420209H76.2893ZM97.7243 0.420209C101.824 0.420209 105.406 1.23272 108.472 2.85775C111.537 4.48279 113.901 6.77261 115.563 9.72721C117.262 12.6449 118.111 16.0242 118.111 19.8652C118.111 23.6692 117.262 27.0486 115.563 30.0032C113.901 32.9578 111.519 35.2476 108.416 36.8726C105.351 38.4977 101.787 39.3102 97.7243 39.3102H83.1544V0.420209H97.7243ZM97.1149 31.1112C100.697 31.1112 103.486 30.1324 105.48 28.175C107.474 26.2176 108.472 23.4477 108.472 19.8652C108.472 16.2827 107.474 13.4943 105.48 11.5C103.486 9.50561 100.697 8.50843 97.1149 8.50843H92.6276V31.1112H97.1149ZM147.614 32.4407H133.1L130.773 39.3102H120.857L134.928 0.420209H145.897L159.968 39.3102H149.941L147.614 32.4407ZM145.177 25.1281L140.357 10.8906L135.593 25.1281H145.177ZM197.601 0.420209L184.139 26.4577V39.3102H174.666V26.4577L161.204 0.420209H171.951L179.486 16.7075L186.964 0.420209H197.601Z" fill="url(#paint0_linear_149_3574)"/>
<defs>
<linearGradient id="paint0_linear_149_3574" x1="97.4646" y1="-21.6898" x2="97.4646" y2="61.3102" gradientUnits="userSpaceOnUse">
<stop offset="0.401408" stop-color="#FF6E00"/>
<stop offset="1" stop-color="#FFC800"/>
</linearGradient>
</defs>
</svg>
